<svg width="320" height="322" viewBox="0 0 160 161" fill="none" xmlns="http://www.w3.org/2000/svg">
<g clip-path="url(#clip0_1076_1742)">
<path d="M80 160.734C124.183 160.734 160 124.917 160 80.7344C160 36.5516 124.183 0.734375 80 0.734375C35.8172 0.734375 0 36.5516 0 80.7344C0 124.917 35.8172 160.734 80 160.734Z" fill="#FFC444"/>
<path d="M64.0404 149.654L63.9304 143.974L61.3204 148.974L59.5504 148.554L59.1504 140.234L61.0104 140.674L61.0604 146.624L63.8604 141.344L65.1604 141.644L65.3104 147.644L67.9904 142.334L69.8604 142.774L65.8604 150.044L64.0404 149.654Z" fill="black"/>
<path d="M75.9202 151.234L76.1802 147.884L72.4102 147.594L72.1501 150.944L70.4502 150.814L71.0702 142.814L72.7701 142.944L72.5302 146.074L76.2902 146.374L76.5402 143.234L78.2502 143.364L77.6302 151.364L75.9202 151.234Z" fill="black"/>
<path d="M86.4205 151.094L85.8505 149.734L82.2805 149.934L81.8505 151.334L79.9805 151.434L82.6405 143.284L84.7805 143.164L88.2805 150.994L86.4205 151.094ZM83.7905 144.694L82.6505 148.404L85.3005 148.264L83.7905 144.694Z" fill="black"/>
<path d="M91.4401 150.464L90.3901 144.044L88.1101 144.404L87.8701 142.924L94.1701 141.924L94.4101 143.404L92.1101 143.784L93.1101 150.204L91.4401 150.464Z" fill="black"/>
<path d="M98.7404 143.734C99.0304 143.384 99.2804 143.074 99.1804 142.734C99.0804 142.394 98.7404 142.154 98.1004 142.324C97.8255 142.406 97.5723 142.548 97.3595 142.74C97.1467 142.932 96.9796 143.169 96.8704 143.434L95.6504 142.634C95.8676 142.19 96.1785 141.798 96.5618 141.486C96.945 141.173 97.3915 140.948 97.8704 140.824C99.3704 140.414 100.49 140.914 100.78 141.984C100.866 142.367 100.849 142.765 100.731 143.139C100.614 143.513 100.399 143.85 100.11 144.114C99.7804 144.524 99.5004 144.874 99.6104 145.304C99.6626 145.487 99.7848 145.641 99.9504 145.734L98.8004 146.454C98.4694 146.245 98.2328 145.915 98.1404 145.534C98.075 145.208 98.0959 144.87 98.2011 144.555C98.3064 144.239 98.4923 143.956 98.7404 143.734ZM99.5204 146.904C99.712 146.846 99.9169 146.846 100.108 146.905C100.3 146.965 100.469 147.08 100.594 147.236C100.719 147.393 100.794 147.584 100.81 147.783C100.825 147.983 100.78 148.183 100.681 148.357C100.582 148.531 100.432 148.671 100.252 148.759C100.072 148.847 99.8699 148.879 99.6716 148.851C99.4732 148.822 99.2879 148.735 99.1397 148.6C98.9915 148.465 98.8872 148.289 98.8404 148.094C98.7809 147.847 98.8181 147.586 98.9445 147.365C99.0708 147.143 99.2768 146.979 99.5204 146.904Z" fill="black"/>
<path d="M79.9999 134.064C109.453 134.064 133.33 110.188 133.33 80.7344C133.33 51.281 109.453 27.4044 79.9999 27.4044C50.5466 27.4044 26.6699 51.281 26.6699 80.7344C26.6699 110.188 50.5466 134.064 79.9999 134.064Z" fill="#6648FF"/>
<path d="M67.0303 122.784L68.0903 119.594L64.5003 118.404L63.4403 121.604L61.8203 121.064L64.3403 113.464L65.9503 113.994L64.9503 116.994L68.5403 118.184L69.5403 115.184L71.1703 115.724L68.6603 123.324L67.0303 122.784Z" fill="black"/>
<path d="M76.6103 116.324C77.4227 116.411 78.1913 116.736 78.8193 117.259C79.4473 117.781 79.9067 118.478 80.1395 119.261C80.3724 120.044 80.3683 120.879 80.1279 121.659C79.8874 122.44 79.4213 123.132 78.7883 123.649C78.1552 124.165 77.3835 124.483 76.5703 124.562C75.7571 124.64 74.9388 124.477 74.2184 124.091C73.498 123.706 72.9077 123.116 72.5219 122.396C72.1361 121.676 71.972 120.858 72.0503 120.044C72.0834 119.492 72.2306 118.953 72.4827 118.461C72.7347 117.969 73.0861 117.534 73.5146 117.184C73.9431 116.835 74.4395 116.578 74.9723 116.43C75.5051 116.282 76.0629 116.246 76.6103 116.324ZM76.4603 117.834C75.8055 117.837 75.1752 118.083 74.6917 118.525C74.2081 118.966 73.9058 119.571 73.8435 120.223C73.7812 120.875 73.9633 121.527 74.3545 122.052C74.7457 122.577 75.3179 122.938 75.9603 123.064C76.635 123.096 77.2961 122.867 77.8065 122.424C78.3169 121.982 78.6374 121.36 78.7017 120.688C78.766 120.015 78.5691 119.344 78.1518 118.813C77.7345 118.281 77.1288 117.931 76.4603 117.834Z" fill="black"/>
<path d="M88.9903 123.964L86.8203 118.724L86.2203 124.354L84.4303 124.614L81.0303 117.014L82.9203 116.754L85.1303 122.274L85.8203 116.334L87.1303 116.144L89.4503 121.654L90.0103 115.734L91.9103 115.464L90.7803 123.704L88.9903 123.964Z" fill="black"/>
<path d="M95.8304 116.864C96.0904 116.484 96.3104 116.164 96.1904 115.864C96.0704 115.564 95.6904 115.314 95.0704 115.544C94.8066 115.654 94.5692 115.818 94.3743 116.027C94.1794 116.236 94.0315 116.484 93.9404 116.754L92.6504 116.064C92.8305 115.601 93.1088 115.183 93.4662 114.837C93.8235 114.492 94.2514 114.228 94.7204 114.064C96.1704 113.534 97.3304 113.934 97.7204 114.984C97.8368 115.357 97.8529 115.754 97.7668 116.135C97.6808 116.516 97.4958 116.868 97.2304 117.154C96.9404 117.594 96.6804 117.974 96.8404 118.384C96.8722 118.472 96.9214 118.553 96.9849 118.622C97.0485 118.691 97.1251 118.746 97.2104 118.784L96.1204 119.594C95.7765 119.413 95.5126 119.11 95.3804 118.744C95.2835 118.419 95.2741 118.074 95.3531 117.744C95.4321 117.414 95.5967 117.111 95.8304 116.864ZM96.8304 119.954C97.0163 119.881 97.2201 119.865 97.4152 119.908C97.6104 119.952 97.788 120.053 97.9252 120.198C98.0624 120.344 98.1529 120.527 98.1849 120.724C98.217 120.922 98.1891 121.124 98.105 121.305C98.0208 121.487 97.8842 121.639 97.7128 121.742C97.5414 121.845 97.3431 121.894 97.1435 121.883C96.9439 121.872 96.752 121.802 96.5928 121.681C96.4336 121.56 96.3144 121.394 96.2504 121.204C96.171 120.955 96.1925 120.684 96.3102 120.451C96.428 120.217 96.6327 120.039 96.8804 119.954H96.8304Z" fill="black"/>
<path d="M80.0001 107.404C94.7295 107.404 106.67 95.4638 106.67 80.7344C106.67 66.0049 94.7295 54.0644 80.0001 54.0644C65.2706 54.0644 53.3301 66.0049 53.3301 80.7344C53.3301 95.4638 65.2706 107.404 80.0001 107.404Z" fill="#59EDF7"/>
<path d="M70.4498 84.7344L69.0398 79.2344L67.6498 84.7344H65.8398L63.5498 76.7344H65.4598L66.8598 82.5144L68.3798 76.7344H69.7198L71.2298 82.5144L72.6198 76.7344H74.5398L72.2598 84.7344H70.4498Z" fill="black"/>
<path d="M80.8401 84.7044V81.3744H77.1102V84.7344H75.4102V76.7344H77.1102V79.8744H80.8902V76.7344H82.6002V84.7344L80.8401 84.7044Z" fill="black"/>
<path d="M86.4101 84.7344V81.4544L83.3301 76.7344H85.2701L87.2701 79.9444L89.2701 76.7344H91.2101L88.1101 81.4544V84.7344H86.4101Z" fill="black"/>
<path d="M94.0195 79.6544C94.3895 79.3944 94.7195 79.1644 94.7195 78.8044C94.7195 78.4444 94.4395 78.1244 93.7795 78.1244C93.4948 78.1304 93.2151 78.1999 92.9608 78.3279C92.7064 78.456 92.4839 78.6393 92.3096 78.8644L91.3096 77.7744C91.6364 77.403 92.0399 77.107 92.4922 76.9068C92.9446 76.7065 93.4349 76.6067 93.9296 76.6144C95.4796 76.6144 96.4296 77.3944 96.4296 78.5044C96.4126 78.8969 96.2904 79.2775 96.0757 79.6065C95.8611 79.9355 95.5619 80.2008 95.2095 80.3744C94.7995 80.6944 94.4196 80.9544 94.4196 81.3744C94.4228 81.5667 94.5019 81.75 94.6396 81.8844L93.3295 82.2644C93.0732 81.9752 92.9341 81.6008 92.9396 81.2144C92.9691 80.8831 93.0841 80.5651 93.2734 80.2917C93.4627 80.0182 93.7198 79.7986 94.0195 79.6544ZM93.9396 82.9244C94.1374 82.9244 94.3307 82.983 94.4951 83.0929C94.6596 83.2028 94.7878 83.359 94.8635 83.5417C94.9392 83.7244 94.9589 83.9255 94.9203 84.1195C94.8818 84.3135 94.7865 84.4916 94.6467 84.6315C94.5068 84.7713 94.3286 84.8666 94.1346 84.9052C93.9407 84.9438 93.7396 84.9239 93.5569 84.8483C93.3742 84.7726 93.218 84.6444 93.1081 84.4799C92.9982 84.3155 92.9396 84.1222 92.9396 83.9244C92.9396 83.7931 92.9654 83.663 93.0157 83.5417C93.0659 83.4204 93.1396 83.3101 93.2324 83.2173C93.3253 83.1244 93.4356 83.0508 93.5569 83.0005C93.6782 82.9503 93.8083 82.9244 93.9396 82.9244Z" fill="black"/>
</g>
<defs>
<clipPath id="clip0_1076_1742">
<rect width="160" height="160" fill="white" transform="translate(0 0.734375)"/>
</clipPath>
</defs>
</svg>
