<svg width="26" height="26" viewBox="0 0 13 13" fill="none" xmlns="http://www.w3.org/2000/svg">
<g clip-path="url(#clip0_1076_2471)">
<path d="M10.8912 6.13111H9.15121C8.66121 6.13111 8.22621 6.40111 8.00621 6.84111L7.58621 7.67111C7.48621 7.87111 7.28621 7.99611 7.06621 7.99611H5.42621C5.27121 7.99611 5.05121 7.96111 4.90621 7.67111L4.48621 6.84611C4.37991 6.63328 4.21655 6.45418 4.01436 6.3288C3.81217 6.20343 3.57911 6.13672 3.34121 6.13611H1.59121C1.39621 6.13611 1.24121 6.29111 1.24121 6.48611V8.11611C1.24121 9.93111 2.33121 11.0161 4.15121 11.0161H8.34121C10.0562 11.0161 11.1112 10.0761 11.2412 8.40611V6.48111C11.2412 6.29111 11.0862 6.13111 10.8912 6.13111ZM6.61621 1.01611C6.61621 0.811113 6.44621 0.641113 6.24121 0.641113C6.03621 0.641113 5.86621 0.811113 5.86621 1.01611V2.01611H6.61621V1.01611Z" fill="#6648FF"/>
<path d="M11.2412 4.92111V5.44111C11.1289 5.401 11.0105 5.3807 10.8912 5.38111H9.15121C8.37621 5.38111 7.68121 5.81111 7.33621 6.50111L6.96121 7.24111H5.53121L5.15621 6.50611C4.98964 6.16724 4.73112 5.88205 4.41018 5.68312C4.08923 5.48418 3.71881 5.37953 3.34121 5.38111H1.59121C1.47121 5.38111 1.35121 5.40111 1.24121 5.44111V4.92111C1.24121 3.10111 2.32621 2.01611 4.14621 2.01611H5.86621V3.61111L5.50621 3.25111C5.43564 3.18137 5.34043 3.14226 5.24121 3.14226C5.142 3.14226 5.04678 3.18137 4.97621 3.25111C4.83121 3.39611 4.83121 3.63611 4.97621 3.78111L5.97621 4.78111C5.98121 4.78611 5.98621 4.78611 5.98621 4.79111C6.05564 4.85528 6.14667 4.89098 6.24121 4.89111C6.29121 4.89111 6.33621 4.88111 6.38121 4.86111C6.42621 4.84611 6.47121 4.81611 6.50621 4.78111L7.50621 3.78111C7.65121 3.63611 7.65121 3.39611 7.50621 3.25111C7.43564 3.18137 7.34043 3.14226 7.24121 3.14226C7.142 3.14226 7.04678 3.18137 6.97621 3.25111L6.61621 3.61111V2.01611H8.33621C10.1562 2.01611 11.2412 3.10111 11.2412 4.92111Z" fill="#6648FF"/>
</g>
<defs>
<clipPath id="clip0_1076_2471">
<rect width="12" height="12" fill="white" transform="translate(0.241211 0.0161133)"/>
</clipPath>
</defs>
</svg>
