<svg width="26" height="26" viewBox="0 0 13 13" fill="none" xmlns="http://www.w3.org/2000/svg">
<g clip-path="url(#clip0_1076_2463)">
<path d="M10.5517 4.24111C10.0267 1.93111 8.01175 0.891113 6.24175 0.891113H6.23675C4.47175 0.891113 2.45175 1.92611 1.92675 4.23611C1.34175 6.81611 2.92175 9.00111 4.35175 10.3761C4.85861 10.8667 5.53635 11.141 6.24175 11.1411C6.92175 11.1411 7.60175 10.8861 8.12675 10.3761C9.55675 9.00111 11.1367 6.82111 10.5517 4.24111ZM6.24175 6.74611C6.03491 6.74611 5.83011 6.70537 5.63902 6.62622C5.44793 6.54707 5.27431 6.43106 5.12805 6.28481C4.9818 6.13855 4.86579 5.96493 4.78664 5.77384C4.70749 5.58275 4.66675 5.37795 4.66675 5.17111C4.66675 4.96428 4.70749 4.75947 4.78664 4.56839C4.86579 4.3773 4.9818 4.20367 5.12805 4.05742C5.27431 3.91117 5.44793 3.79515 5.63902 3.716C5.83011 3.63685 6.03491 3.59611 6.24175 3.59611C6.65946 3.59611 7.06007 3.76205 7.35544 4.05742C7.65081 4.35279 7.81675 4.7534 7.81675 5.17111C7.81675 5.58883 7.65081 5.98944 7.35544 6.28481C7.06007 6.58018 6.65946 6.74611 6.24175 6.74611Z" fill="#6648FF"/>
</g>
<defs>
<clipPath id="clip0_1076_2463">
<rect width="12" height="12" fill="white" transform="translate(0.241211 0.0161133)"/>
</clipPath>
</defs>
</svg>
