<svg width="26" height="26" viewBox="0 0 13 13" fill="none" xmlns="http://www.w3.org/2000/svg">
<path d="M9.77684 7.13714C9.63184 7.28214 9.40184 7.28214 9.26184 7.13714C9.22739 7.10368 9.20001 7.06365 9.18132 7.01942C9.16262 6.97519 9.15299 6.92766 9.15299 6.87964C9.15299 6.83162 9.16262 6.78409 9.18132 6.73986C9.20001 6.69563 9.22739 6.6556 9.26184 6.62214C10.2618 5.62214 10.2618 3.99714 9.26184 3.00214C8.26184 2.00714 6.63684 2.00214 5.64184 3.00214C4.64684 4.00214 4.64184 5.62714 5.64184 6.62214C5.78684 6.76714 5.78684 6.99714 5.64184 7.13714C5.49684 7.28214 5.26684 7.28214 5.12684 7.13714C3.84184 5.85214 3.84184 3.76214 5.12684 2.48214C6.41184 1.20214 8.50184 1.19714 9.78184 2.48214C10.3971 3.10079 10.7421 3.93813 10.7412 4.81067C10.7402 5.68322 10.3935 6.51981 9.77684 7.13714Z" fill="#6648FF"/>
<path d="M2.70556 4.8961C2.85056 4.7511 3.08056 4.7511 3.22056 4.8961C3.36556 5.0411 3.36556 5.2711 3.22056 5.4111C2.22056 6.4111 2.22056 8.0361 3.22056 9.0311C4.22056 10.0261 5.84556 10.0311 6.84056 9.0311C7.83556 8.0311 7.84056 6.4061 6.84056 5.4111C6.80612 5.37764 6.77873 5.33761 6.76004 5.29338C6.74134 5.24915 6.73171 5.20162 6.73171 5.1536C6.73171 5.10558 6.74134 5.05805 6.76004 5.01382C6.77873 4.96959 6.80612 4.92956 6.84056 4.8961C6.98556 4.7511 7.21556 4.7511 7.35556 4.8961C8.64056 6.1811 8.64056 8.2711 7.35556 9.5511C6.07056 10.8311 3.98056 10.8361 2.70056 9.5511C2.08525 8.93245 1.74028 8.09511 1.74121 7.22257C1.74215 6.35003 2.08893 5.51343 2.70556 4.8961Z" fill="#6648FF"/>
</svg>
