<svg width="48" height="50" viewBox="0 0 24 25" fill="none" xmlns="http://www.w3.org/2000/svg">
<path d="M20.0205 11.2L17.2205 12.97L11.5605 7.30998L13.3205 4.50998C14.1405 3.21998 15.7805 3.15998 16.9905 4.35998L20.1705 7.53998C21.3005 8.66998 21.2305 10.43 20.0205 11.2Z" fill="#6648FF"/>
<path opacity="0.4" d="M14.7103 20.45L6.0003 21.48C5.4003 21.55 4.8603 21.46 4.4103 21.24C3.9203 21 3.5403 20.62 3.3003 20.13C3.0803 19.68 3.0003 19.14 3.0603 18.55L4.1003 9.82998C4.3503 7.64998 5.1603 6.93999 7.4603 7.06999L11.5803 7.31999L17.2403 12.98L17.4803 17.1C17.6903 19.4 16.9003 20.2 14.7103 20.45Z" fill="#6648FF"/>
<path d="M7.97906 17.65L4.39906 21.23C3.90906 20.99 3.52906 20.61 3.28906 20.12L6.87906 16.53C7.18906 16.23 7.68906 16.23 7.98906 16.53C8.29906 16.85 8.29906 17.34 7.97906 17.65Z" fill="#6648FF"/>
</svg>
