<svg width="25" height="24" viewBox="0 0 25 24" fill="none" xmlns="http://www.w3.org/2000/svg">
<g clip-path="url(#clip0_1076_1786)">
<path d="M17.3641 20.7703V18.8061C17.3641 17.7642 16.9502 16.765 16.2135 16.0283C15.4768 15.2916 14.4776 14.8777 13.4357 14.8777H5.57882C4.53693 14.8777 3.53772 15.2916 2.801 16.0283C2.06428 16.765 1.65039 17.7642 1.65039 18.8061V20.7703" stroke="#6648FF" stroke-width="1.96421" stroke-linecap="round" stroke-linejoin="round"/>
<path d="M9.50655 10.9493C11.6762 10.9493 13.435 9.19044 13.435 7.02083C13.435 4.85122 11.6762 3.09241 9.50655 3.09241C7.33694 3.09241 5.57812 4.85122 5.57812 7.02083C5.57812 9.19044 7.33694 10.9493 9.50655 10.9493Z" stroke="#6648FF" stroke-width="1.96421" stroke-linecap="round" stroke-linejoin="round"/>
<path d="M23.2569 20.7703V18.8061C23.2562 17.9356 22.9665 17.0901 22.4332 16.4022C21.9 15.7143 21.1533 15.2229 20.3105 15.0053" stroke="#6648FF" stroke-width="1.96421" stroke-linecap="round" stroke-linejoin="round"/>
<path d="M16.3818 3.22003C17.2269 3.43639 17.9758 3.92784 18.5107 4.61689C19.0455 5.30595 19.3359 6.15342 19.3359 7.02569C19.3359 7.89797 19.0455 8.74544 18.5107 9.4345C17.9758 10.1236 17.2269 10.615 16.3818 10.8314" stroke="#6648FF" stroke-width="1.96421" stroke-linecap="round" stroke-linejoin="round"/>
</g>
<defs>
<clipPath id="clip0_1076_1786">
<rect width="23.5706" height="23.5706" fill="white" transform="translate(0.667969 0.146057)"/>
</clipPath>
</defs>
</svg>
