<svg width="26" height="26" viewBox="0 0 13 13" fill="none" xmlns="http://www.w3.org/2000/svg">
<path d="M5.76621 7.49111L4.84121 8.41611C4.64621 8.61111 4.33621 8.61111 4.13621 8.42111C4.08121 8.36611 4.02621 8.31611 3.97121 8.26111C3.46559 7.75212 2.99926 7.20555 2.57621 6.62611C2.16621 6.05611 1.83621 5.48611 1.59621 4.92111C1.36121 4.35111 1.24121 3.80611 1.24121 3.28611C1.24121 2.94611 1.30121 2.62111 1.42121 2.32111C1.54121 2.01611 1.73121 1.73611 1.99621 1.48611C2.31621 1.17111 2.66621 1.01611 3.03621 1.01611C3.17621 1.01611 3.31621 1.04611 3.44121 1.10611C3.57121 1.16611 3.68621 1.25611 3.77621 1.38611L4.93621 3.02111C5.02621 3.14611 5.09121 3.26111 5.13621 3.37111C5.18121 3.47611 5.20621 3.58111 5.20621 3.67611C5.20621 3.79611 5.17121 3.91611 5.10121 4.03111C5.03621 4.14611 4.94121 4.26611 4.82121 4.38611L4.44121 4.78111C4.38621 4.83611 4.36121 4.90111 4.36121 4.98111C4.36121 5.02111 4.36621 5.05611 4.37621 5.09611C4.39121 5.13611 4.40621 5.16611 4.41621 5.19611C4.50621 5.36111 4.66121 5.57611 4.88121 5.83611C5.10621 6.09611 5.34621 6.36111 5.60621 6.62611C5.65621 6.67611 5.71121 6.72611 5.76121 6.77611C5.96121 6.97111 5.96621 7.29111 5.76621 7.49111ZM11.2262 9.18111C11.2255 9.36981 11.1828 9.55599 11.1012 9.72611C11.0162 9.90611 10.9062 10.0761 10.7612 10.2361C10.5162 10.5061 10.2462 10.7011 9.94121 10.8261C9.93621 10.8261 9.93121 10.8311 9.92621 10.8311C9.63121 10.9511 9.31121 11.0161 8.96621 11.0161C8.45621 11.0161 7.91121 10.8961 7.33621 10.6511C6.76121 10.4061 6.18621 10.0761 5.61621 9.66111C5.42121 9.51611 5.22621 9.37111 5.04121 9.21611L6.67621 7.58111C6.81621 7.68611 6.94121 7.76611 7.04621 7.82111C7.07121 7.83111 7.10121 7.84611 7.13621 7.86111C7.17621 7.87611 7.21621 7.88111 7.26121 7.88111C7.34621 7.88111 7.41121 7.85111 7.46621 7.79611L7.84621 7.42111C7.97121 7.29611 8.09121 7.20111 8.20621 7.14111C8.32121 7.07111 8.43621 7.03611 8.56121 7.03611C8.65621 7.03611 8.75621 7.05611 8.86621 7.10111C8.97621 7.14611 9.09121 7.21111 9.21621 7.29611L10.8712 8.47111C11.0012 8.56111 11.0912 8.66611 11.1462 8.79111C11.1962 8.91611 11.2262 9.04111 11.2262 9.18111Z" fill="#6648FF"/>
</svg>
