<svg width="129" height="128" viewBox="0 0 129 128" fill="none" xmlns="http://www.w3.org/2000/svg">
<g clip-path="url(#clip0_1076_1811)">
<rect x="0.394531" y="0.169922" width="127.692" height="127.692" rx="3.90622" fill="white"/>
<path d="M85.8284 108.978C85.3343 108.837 86.3292 106.327 85.3719 102.773C85.1332 101.885 84.1675 96.9507 80.454 96.2451L78.2912 95.8344C77.9157 94.1102 77.8843 92.4164 80.1794 92.1301C83.7436 91.6857 84.6212 85.9859 83.9623 83.8201C83.1469 81.1398 81.3817 74.8658 86.8775 74.0971C91.4527 73.4562 94.5711 73.9365 95.6236 68.6268C96.676 63.3171 100.228 60.4478 105.313 61.5566C110.663 62.7216 116.037 56.5966 120.141 59.5535C127.294 64.7042 118.672 75.4366 108.826 77.4163C98.9794 79.3959 103.91 83.4208 103.553 87.8433C103.47 88.4435 103.317 89.0318 103.096 89.5959C101.363 94.0042 96.4753 94.061 92.4922 97.2741C87.0599 101.661 86.6609 109.217 85.8284 108.978Z" fill="white"/>
<path d="M90.2607 99.0768L78.5126 97.1815C78.0606 95.496 77.6159 92.4498 80.1793 92.1301C83.7434 91.6857 84.6214 85.9859 83.9625 83.8201C83.1471 81.1398 81.382 74.8658 86.8777 74.0971C91.453 73.4562 94.5714 73.9365 95.6238 68.6268C96.6763 63.3171 100.228 60.4478 105.313 61.5566C110.664 62.7217 116.037 56.5966 120.141 59.5535C127.294 64.7042 118.672 75.4366 108.826 77.4163C98.9797 79.3959 103.91 83.4204 103.553 87.8433C103.065 93.8811 94.7015 91.2893 92.1189 93.294C90.0929 94.863 90.0675 97.4557 90.2607 99.0768Z" fill="url(#paint0_linear_1076_1811)"/>
<mask id="mask0_1076_1811" style="mask-type:luminance" maskUnits="userSpaceOnUse" x="78" y="58" width="45" height="42">
<path d="M90.2607 99.0769L78.5126 97.1816C78.0606 95.4961 77.6159 92.4498 80.1793 92.1302C83.7434 91.6858 84.6214 85.986 83.9625 83.8202C83.1471 81.1399 81.382 74.8659 86.8777 74.0972C91.453 73.4562 94.5714 73.9365 95.6238 68.6269C96.6763 63.3172 100.228 60.4479 105.313 61.5566C110.664 62.7217 116.037 56.5966 120.141 59.5536C127.294 64.7043 118.672 75.4367 108.826 77.4164C98.9797 79.396 103.91 83.4204 103.553 87.8433C103.065 93.8812 94.7015 91.2894 92.1189 93.2941C90.0929 94.8631 90.0675 97.4557 90.2607 99.0769Z" fill="white"/>
</mask>
<g mask="url(#mask0_1076_1811)">
<g style="mix-blend-mode:soft-light" opacity="0.5">
<path d="M84.987 96.4349L84.7441 96.3481C90.8913 79.6341 105.627 66.0846 123.202 60.9865L123.285 61.2205C105.781 66.2969 91.1092 79.7906 84.987 96.4349Z" fill="#FCFDFE"/>
<path d="M89.1675 87.6189L88.9129 87.5773C89.9031 80.6452 84.4094 74.2576 84.3535 74.1942L84.5492 74.0414C84.6056 74.1074 90.174 80.5775 89.1675 87.6189Z" fill="#FCFDFE"/>
<path d="M86.2067 93.3923L85.998 93.2425C90.4047 87.609 104.011 88.853 104.15 88.8663L104.132 89.1096C103.996 89.0967 90.5278 87.8673 86.2067 93.3923Z" fill="#FCFDFE"/>
<path d="M100.36 74.0239L100.14 73.8912C103.213 69.1445 100.812 60.7205 100.788 60.6358L101.035 60.577C101.06 60.6629 103.49 69.1895 100.36 74.0239Z" fill="#FCFDFE"/>
<path d="M109.647 67.1597L109.543 66.9332C115.732 64.5041 124.32 67.7318 124.406 67.7652L124.317 67.9918C124.232 67.9593 115.74 64.7686 109.647 67.1597Z" fill="#FCFDFE"/>
</g>
</g>
<path d="M64.2076 103.284C76.8867 94.1364 78.8296 74.39 72.7918 69.0073C69.6512 66.2077 65.6514 68.4523 62.7984 65.1031C59.6374 61.3925 62.9849 56.8027 62.5676 46.649C62.3519 41.4032 61.9609 31.8897 56.448 28.4708C50.9814 25.0799 45.9275 31.0631 39.8434 27.7397C34.0905 24.5975 36.4216 18.0539 29.4177 11.9079C28.7663 11.3362 21.3568 4.99251 15.3615 7.43076C9.26895 9.90783 6.79022 20.5756 9.85734 27.3441C12.6436 33.4951 19.1901 34.6226 18.7678 38.2138C18.3026 42.1715 10.2004 42.0984 9.33238 46.1182C8.07716 51.9282 24.0896 56.3195 24.3508 65.5275C24.5044 70.9423 19.0366 71.8512 17.7438 78.6723C16.0746 87.4747 23.1344 96.7683 29.3142 101.442C38.2702 108.214 53.2185 111.212 64.2076 103.284Z" fill="url(#paint1_linear_1076_1811)"/>
<mask id="mask1_1076_1811" style="mask-type:luminance" maskUnits="userSpaceOnUse" x="8" y="6" width="69" height="103">
<path d="M64.2076 103.284C76.8867 94.1366 78.8296 74.3901 72.7918 69.0074C69.6512 66.2078 65.6514 68.4524 62.7984 65.1032C59.6374 61.3926 62.9849 56.8028 62.5676 46.6492C62.3519 41.4033 61.9609 31.8898 56.448 28.4709C50.9814 25.08 45.9275 31.0632 39.8434 27.7398C34.0905 24.5976 36.4216 18.054 29.4177 11.9081C28.7663 11.3364 21.3568 4.99263 15.3615 7.43089C9.26895 9.90795 6.79022 20.5757 9.85734 27.3442C12.6436 33.4952 19.1901 34.6227 18.7678 38.2139C18.3026 42.1716 10.2004 42.0986 9.33238 46.1184C8.07716 51.9284 24.0896 56.3196 24.3508 65.5276C24.5044 70.9425 19.0366 71.8513 17.7438 78.6724C16.0746 87.4749 23.1344 96.7684 29.3142 101.442C38.2702 108.214 53.2185 111.212 64.2076 103.284Z" fill="white"/>
</mask>
<g mask="url(#mask1_1076_1811)">
<g style="mix-blend-mode:soft-light" opacity="0.8">
<path d="M57.6731 111.811L58.1538 111.69C53.488 93.0791 48.0461 75.798 41.9786 60.3293C37.5382 48.8347 32.3103 37.66 26.3321 26.8847C16.9134 10.16 9.89359 3.3159 9.8239 3.24872L9.48047 3.60593C9.54974 3.6727 16.5328 10.4846 25.9182 27.1593C34.5821 42.5504 47.1243 69.7306 57.6731 111.811Z" fill="white"/>
<path d="M27.1784 28.5202C29.9947 13.4217 25.1102 1.0722 25.0606 0.949097L24.6016 1.1348C24.6508 1.25665 29.4802 13.4788 26.6914 28.4293L27.1784 28.5202Z" fill="white"/>
<path d="M42.8923 62.5294C50.9252 47.8523 53.3009 37.4266 53.8792 31.2648C54.5089 24.553 53.2395 21.3665 53.1853 21.2343L52.7262 21.422C52.7391 21.4537 54.009 24.6632 53.3801 31.2735C52.7988 37.3815 50.4324 47.7208 42.457 62.2915L42.8923 62.5294Z" fill="white"/>
<path d="M53.8238 95.9897C73.2752 74.1439 74.076 56.915 74.0819 56.7439L73.5865 56.7272C73.5865 56.769 73.3641 61.234 70.6371 68.4157C68.2355 74.7381 63.3048 84.5971 53.4541 95.6605L53.8238 95.9897Z" fill="white"/>
<path d="M35.5963 57.6921C37.3158 57.995 39.0513 58.1983 40.7941 58.3009L40.8229 57.806C29.233 57.132 19.288 51.8633 12.9864 47.5622C8.99781 44.8754 5.30798 41.7697 1.97981 38.2982L1.61133 38.63C4.9663 42.1304 8.68594 45.2621 12.7068 47.9716C18.0974 51.6513 26.1354 56.0333 35.5963 57.6921Z" fill="white"/>
<path d="M48.9562 89.4883C49.8687 89.6482 50.7994 89.7773 51.7483 89.8755L51.7988 89.3827C39.7581 88.1492 30.7174 81.5463 25.2534 76.2245C21.7487 72.8465 18.7011 69.0245 16.188 64.8558L15.7549 65.0965C18.2921 69.307 21.3692 73.1675 24.9079 76.5797C29.998 81.5372 38.1645 87.5958 48.9562 89.4883Z" fill="white"/>
</g>
</g>
<path d="M59.8658 90.1333C48.134 81.4118 46.58 62.9256 52.2961 57.9752C55.2693 55.3997 58.9787 57.5513 61.6907 54.4578C64.6952 51.0306 61.6264 46.6962 62.1497 37.2085C62.4209 32.307 62.9129 23.4186 68.1124 20.2951C73.2685 17.198 77.9135 22.8582 83.6454 19.8324C89.0653 16.9714 86.9721 10.8229 93.6025 5.17026C94.2193 4.64446 101.23 -1.18765 106.803 1.17132C112.464 3.56785 114.641 13.5725 111.685 19.8611C108.999 25.5743 102.864 26.5416 103.21 29.9046C103.593 33.6106 111.168 33.6502 111.927 37.4197C113.023 42.8683 97.995 46.7604 97.6282 55.3659C97.4124 60.426 102.511 61.3482 103.631 67.7416C105.074 75.9932 98.3509 84.5878 92.5113 88.8747C84.0494 95.087 70.0349 97.6892 59.8658 90.1333Z" fill="url(#paint2_linear_1076_1811)"/>
<mask id="mask2_1076_1811" style="mask-type:luminance" maskUnits="userSpaceOnUse" x="49" y="0" width="65" height="95">
<path d="M59.8649 90.1331C48.133 81.4117 46.579 62.9255 52.2951 57.9751C55.2683 55.3996 58.9777 57.5511 61.6897 54.4577C64.6942 51.0305 61.6254 46.696 62.1487 37.2084C62.42 32.3069 62.9119 23.4185 68.1114 20.295C73.2675 17.1978 77.9125 22.858 83.6444 19.8322C89.0643 16.9713 86.9711 10.8228 93.6015 5.17013C94.2183 4.64434 101.229 -1.18777 106.802 1.1712C112.463 3.56773 114.64 13.5724 111.684 19.861C108.998 25.5742 102.863 26.5415 103.209 29.9045C103.592 33.6105 111.167 33.6501 111.926 37.4195C113.022 42.8682 97.994 46.7603 97.6272 55.3658C97.4115 60.4259 102.51 61.3481 103.63 67.7415C105.073 75.9931 98.3499 84.5877 92.5103 88.8746C84.0484 95.0869 70.0339 97.6891 59.8649 90.1331Z" fill="white"/>
</mask>
<g mask="url(#mask2_1076_1811)">
<g style="mix-blend-mode:soft-light">
<path d="M65.8618 98.1917L65.4141 98.0727C70.0231 80.7345 75.3402 64.652 81.2183 50.2711C85.5222 39.584 90.5581 29.2064 96.2902 19.2123C105.318 3.70139 111.971 -2.60352 112.038 -2.66528L112.354 -2.32685C112.289 -2.26509 105.671 4.01061 96.6741 19.4747C88.3691 33.7483 76.2825 58.9918 65.8618 98.1917Z" fill="url(#paint3_linear_1076_1811)"/>
<path d="M95.4762 20.7298C93.0438 6.57681 97.7743 -4.90341 97.8222 -5.01733L98.2491 -4.8379C98.2015 -4.72481 93.5241 6.63773 95.9327 20.6518L95.4762 20.7298Z" fill="url(#paint4_linear_1076_1811)"/>
<path d="M80.3341 52.3154C73.0189 38.4875 70.9366 28.709 70.478 22.9407C69.9773 16.6579 71.2075 13.6956 71.26 13.5724L71.6861 13.7544C71.6736 13.7836 70.4438 16.7677 70.9442 22.9558C71.4065 28.6727 73.4817 38.3711 80.7439 52.0989L80.3341 52.3154Z" fill="url(#paint5_linear_1076_1811)"/>
<path d="M69.6703 83.4519C51.7754 62.7699 51.2559 46.6527 51.2529 46.4925L51.7161 46.4833C51.7161 46.525 51.8643 50.7009 54.3184 57.4498C56.4796 63.3925 60.9584 72.6749 70.0208 83.149L69.6703 83.4519Z" fill="url(#paint6_linear_1076_1811)"/>
<path d="M87.2188 47.8909C85.6073 48.1515 83.9823 48.3186 82.3515 48.3916L82.3311 47.9289C93.1753 47.4527 102.543 42.6592 108.491 38.7221C112.255 36.2637 115.746 33.4099 118.904 30.2092L119.243 30.5243C116.06 33.7522 112.541 36.6305 108.746 39.1102C103.66 42.4757 96.0859 46.4654 87.2188 47.8909Z" fill="url(#paint7_linear_1076_1811)"/>
<path d="M74.3068 77.4384C73.4516 77.5758 72.5797 77.6841 71.6911 77.7634L71.6494 77.3019C82.9222 76.3087 91.4617 70.2558 96.6412 65.353C99.9626 62.2416 102.863 58.709 105.268 54.8452L105.669 55.0759C103.241 58.9786 100.313 62.5468 96.9597 65.6898C92.1362 70.2571 84.4208 75.8126 74.3068 77.4384Z" fill="url(#paint8_linear_1076_1811)"/>
</g>
</g>
<g filter="url(#filter0_b_1076_1811)">
<path d="M93.7016 21.7975L30.8185 17.8182C29.3701 17.741 28.0664 19.4698 28.0664 20.9212V109.495C28.0664 111.508 29.9464 111.915 31.3948 111.752L93.7016 104.791C94.84 104.666 95.7589 103.525 95.7589 102.246V24.2228C95.7589 22.9438 94.84 21.8584 93.7016 21.7975Z" fill="#FE7062" fill-opacity="0.4"/>
<path d="M94.7369 21.0934L31.7294 17.7029C31.389 17.6818 31.0478 17.7313 30.7274 17.8483C30.407 17.9652 30.1142 18.1471 29.8673 18.3826C29.6205 18.618 29.425 18.9019 29.293 19.2164C29.1611 19.531 29.0955 19.8694 29.1004 20.2105V109.476C29.0915 109.812 29.1557 110.145 29.2886 110.454C29.4215 110.762 29.6199 111.038 29.87 111.262C30.1202 111.485 30.4161 111.652 30.7372 111.75C31.0583 111.848 31.3969 111.875 31.7294 111.829L94.7369 104.735C95.8748 104.607 96.7938 103.459 96.7938 102.17V23.5375C96.7942 22.2489 95.8753 21.1548 94.7369 21.0934Z" fill="#FE7062" fill-opacity="0.4"/>
<path opacity="0.74" d="M31.7298 110.619C31.5501 110.643 31.3674 110.628 31.1941 110.575C31.0209 110.522 30.8612 110.431 30.7263 110.31C30.5914 110.189 30.4844 110.04 30.4126 109.874C30.3409 109.707 30.3063 109.527 30.311 109.346V20.2706C30.3085 20.0865 30.344 19.9038 30.4153 19.734C30.4866 19.5642 30.592 19.4109 30.7252 19.2837C30.8583 19.1564 31.0162 19.058 31.189 18.9944C31.3619 18.9309 31.546 18.9037 31.7298 18.9144L94.7373 22.1693C95.0551 22.2093 95.3463 22.3676 95.5528 22.6125C95.7593 22.8575 95.8661 23.1712 95.8518 23.4913V102.273C95.8616 102.599 95.7547 102.917 95.5504 103.172C95.3461 103.426 95.0578 103.599 94.7373 103.66L31.7298 110.619Z" fill="white"/>
<path d="M90.6755 101.548L36.7852 107.227V25.0474L90.6755 27.2674V101.548Z" fill="white"/>
<g style="mix-blend-mode:multiply" opacity="0.3">
<path d="M69.1205 27.6692L47.583 27.9638L48.0663 22.6508C48.0685 22.3343 48.1777 22.0278 48.3762 21.7813C48.5747 21.5348 48.8508 21.3627 49.1596 21.293L52.8071 20.6799C53.0282 20.6363 53.2346 20.5375 53.4071 20.3927C53.5797 20.2478 53.7128 20.0617 53.794 19.8516L54.1896 18.9119L63.7303 19.5562L69.1205 27.6692Z" fill="#FE7062" fill-opacity="0.4"/>
</g>
<path d="M80.6216 24.2224C80.5893 23.9471 80.4622 23.6916 80.262 23.4999C80.0617 23.3082 79.801 23.1923 79.5245 23.172L76.0831 23.0051C74.5212 22.9284 73.3761 21.5404 73.4332 19.7823L73.5659 15.7079C73.5986 15.3707 73.4968 15.0343 73.2827 14.7719C73.0686 14.5094 72.7594 14.3422 72.4225 14.3066L71.2921 14.2327C70.43 14.1764 69.8558 13.3452 69.9768 12.3837C70.1884 10.7037 69.1359 9.25399 67.6107 9.14007C66.0734 9.02531 64.6388 10.3085 64.4101 12.0119C64.3775 12.2669 64.2964 12.5132 64.171 12.7376C64.0198 13.0249 63.7911 13.264 63.5107 13.4278C63.2304 13.5916 62.9097 13.6734 62.5852 13.664L61.4168 13.5876C61.0511 13.5833 60.6954 13.7068 60.4111 13.9369C60.1268 14.1669 59.9317 14.4889 59.8595 14.8474L58.8897 18.9832C58.4703 20.7718 56.8866 22.0641 55.2083 21.9819L51.433 21.7971C51.1127 21.7939 50.7985 21.8855 50.5299 22.0601C50.2613 22.2348 50.0503 22.4849 49.9232 22.779L47.6482 27.7168C47.6002 27.8004 47.5742 27.8947 47.5724 27.9911C47.5706 28.0874 47.5931 28.1826 47.6378 28.2679C47.6826 28.3533 47.7482 28.4259 47.8284 28.4792C47.9087 28.5324 48.0011 28.5646 48.0971 28.5727L80.8356 29.762C80.9272 29.7561 81.0165 29.7308 81.0976 29.6879C81.1787 29.645 81.2497 29.5854 81.3061 29.513C81.3624 29.4406 81.4028 29.357 81.4245 29.2679C81.4462 29.1788 81.4488 29.086 81.432 28.9958L80.6216 24.2224ZM67.1463 12.6633C67.0354 12.6508 66.9283 12.6153 66.8318 12.5591C66.7353 12.503 66.6516 12.4273 66.5859 12.3371C66.5202 12.2468 66.4741 12.1439 66.4504 12.0348C66.4267 11.9257 66.4259 11.8129 66.4482 11.7035C66.4704 11.4713 66.5787 11.2559 66.7519 11.0996C66.9251 10.9434 67.1505 10.8576 67.3837 10.8593C67.4942 10.8723 67.6008 10.9079 67.6967 10.9641C67.7927 11.0203 67.876 11.0958 67.9414 11.1857C68.0067 11.2757 68.0527 11.3783 68.0765 11.4869C68.1002 11.5956 68.1012 11.708 68.0793 11.817C68.0579 12.0494 67.9501 12.2653 67.7773 12.4222C67.6045 12.5791 67.3793 12.6655 67.1459 12.6645L67.1463 12.6633Z" fill="url(#paint9_linear_1076_1811)"/>
<path d="M80.8154 24.333C80.7831 24.0577 80.656 23.8022 80.4557 23.6105C80.2555 23.4188 79.9948 23.3029 79.7183 23.2826L76.2769 23.1157C74.7149 23.0389 73.5699 21.651 73.6271 19.8929L73.7597 15.8185C73.7924 15.4813 73.6906 15.1449 73.4765 14.8825C73.2623 14.62 72.9532 14.4528 72.6164 14.4172L71.4855 14.3433C70.6234 14.287 70.0492 13.4557 70.1702 12.4943C70.3818 10.8142 69.3293 9.36459 67.8041 9.25066C66.2668 9.13591 64.8321 10.4191 64.6034 12.1225C64.5709 12.3774 64.4897 12.6238 64.3643 12.8482C64.2132 13.1355 63.9845 13.3746 63.7042 13.5384C63.4238 13.7022 63.1032 13.784 62.7786 13.7746L61.6102 13.6982C61.2445 13.694 60.8889 13.8175 60.6045 14.0475C60.3202 14.2775 60.1251 14.5995 60.0529 14.958L59.083 19.0938C58.6637 20.8823 57.08 22.1747 55.4016 22.0925L51.6264 21.9072C51.306 21.9041 50.9919 21.9956 50.7233 22.1703C50.4547 22.345 50.2437 22.595 50.1166 22.8891L47.8415 27.827C47.7936 27.9106 47.7675 28.0049 47.7657 28.1012C47.7639 28.1975 47.7865 28.2928 47.8312 28.3781C47.876 28.4634 47.9415 28.5361 48.0218 28.5893C48.1021 28.6426 48.1945 28.6748 48.2906 28.6828L81.0291 29.8726C81.1206 29.8667 81.2098 29.8414 81.2909 29.7985C81.372 29.7556 81.4431 29.696 81.4995 29.6236C81.5558 29.5512 81.5962 29.4676 81.6179 29.3785C81.6396 29.2894 81.6421 29.1966 81.6254 29.1064L80.8154 24.333ZM67.3401 12.7739C67.2291 12.7614 67.1221 12.7259 67.0256 12.6697C66.9291 12.6136 66.8454 12.5379 66.7797 12.4477C66.7141 12.3574 66.6679 12.2544 66.6442 12.1454C66.6205 12.0363 66.6197 11.9235 66.6419 11.8141C66.6641 11.5819 66.7725 11.3665 66.9457 11.2102C67.1189 11.0539 67.3443 10.9682 67.5775 10.9699C67.688 10.9829 67.7946 11.0185 67.8906 11.0747C67.9865 11.1309 68.0698 11.2064 68.1352 11.2963C68.2005 11.3863 68.2465 11.4889 68.2703 11.5975C68.294 11.7062 68.295 11.8186 68.2732 11.9276C68.2517 12.1599 68.1439 12.3758 67.9712 12.5326C67.7985 12.6895 67.5734 12.776 67.3401 12.7751V12.7739Z" fill="#FE7062" fill-opacity="0.4"/>
<g style="mix-blend-mode:soft-light" opacity="0.5">
<path d="M75.2135 26.6022C72.2924 24.6301 70.0524 26.0285 68.2321 23.8064C66.2838 21.4253 67.5978 18.291 65.5818 16.8116C64.2912 15.8648 63.1398 16.6998 61.6388 16.4436C61.0002 16.3248 60.4007 16.0505 59.8933 15.6449L59.0846 19.0943C58.6652 20.8828 57.0815 22.1751 55.4032 22.0929L51.6279 21.9081C51.3076 21.905 50.9934 21.9965 50.7248 22.1712C50.4562 22.3458 50.2452 22.5959 50.1181 22.89L47.8435 27.8278C47.7956 27.9114 47.7695 28.0057 47.7677 28.1021C47.7659 28.1984 47.7884 28.2936 47.8331 28.379C47.8779 28.4643 47.9435 28.5369 48.0238 28.5902C48.104 28.6435 48.1964 28.6756 48.2925 28.6837L78.0456 29.7645C77.3562 28.5074 76.3872 27.4255 75.2135 26.6022Z" fill="white"/>
</g>
<path d="M85.8255 68.3808L44.5361 69.6581V63.9032L85.8255 62.9726V68.3808Z" fill="#FE7062" fill-opacity="0.4"/>
<path d="M85.8255 76.2617L44.5361 78.0444V72.2882L85.8255 70.8523V76.2617Z" fill="#FE7062" fill-opacity="0.4"/>
<path d="M85.8255 84.1436L44.5361 86.4317V80.6759L85.8255 78.7346V84.1436Z" fill="#FE7062" fill-opacity="0.4"/>
<path d="M85.8255 92.0255L44.5361 94.8189V89.0631L85.8255 86.6165V92.0255Z" fill="#FE7062" fill-opacity="0.4"/>
<path d="M85.8256 36.0356L69.0645 35.6501V32.2216L85.8256 32.7106V36.0356Z" fill="#FE7062" fill-opacity="0.4"/>
<path d="M85.8256 43.4243L69.0645 43.2682V41.554L85.8256 41.7626V43.4243Z" fill="#FE7062" fill-opacity="0.4"/>
<path d="M85.8256 46.1646L69.0645 46.0937V44.3795L85.8256 44.5021V46.1646Z" fill="#FE7062" fill-opacity="0.4"/>
<path d="M85.8256 48.9046L69.0645 48.9188V47.205L85.8256 47.2425V48.9046Z" fill="#FE7062" fill-opacity="0.4"/>
<mask id="mask3_1076_1811" style="mask-type:luminance" maskUnits="userSpaceOnUse" x="42" y="33" width="25" height="24">
<path d="M54.5642 56.9222C61.0172 56.9222 66.2484 51.6909 66.2484 45.2379C66.2484 38.7848 61.0172 33.5536 54.5642 33.5536C48.1111 33.5536 42.8799 38.7848 42.8799 45.2379C42.8799 51.6909 48.1111 56.9222 54.5642 56.9222Z" fill="white"/>
</mask>
<g mask="url(#mask3_1076_1811)">
<path d="M44.5352 57.73V47.2939L47.7291 46.7898L61.3722 46.6446L64.8237 47.2643V57.4045L44.5352 57.73Z" fill="#FE7062" fill-opacity="0.4"/>
<path d="M55.357 40.1326C55.5147 41.7353 55.6724 43.3371 55.8298 44.9381C55.8445 45.1421 55.9296 45.3347 56.0706 45.4829C56.2116 45.6311 56.3996 45.7257 56.6026 45.7506C58.2013 45.8992 59.9569 46.6883 61.538 46.8356L54.2896 49.0986L47.8945 46.9808C49.6196 46.7179 50.8753 46.1666 52.1413 45.7556C52.3037 45.6996 52.4465 45.598 52.5526 45.4629C52.6588 45.3279 52.7237 45.1651 52.7397 44.9941L53.0685 42.0188L55.357 40.1326Z" fill="white"/>
<path d="M54.2896 49.3419C54.2633 49.3419 54.2373 49.3377 54.2124 49.3294L47.8177 47.2116C47.7655 47.1941 47.7207 47.1595 47.6905 47.1134C47.6603 47.0673 47.6465 47.0124 47.6513 46.9576C47.6561 46.9027 47.6793 46.851 47.717 46.8108C47.7548 46.7707 47.805 46.7445 47.8595 46.7363C48.9801 46.5464 50.0791 46.2455 51.1402 45.8383C51.4582 45.7265 51.7591 45.6204 52.0675 45.5203C52.1849 45.4787 52.2879 45.4043 52.3642 45.3058C52.4405 45.2074 52.4868 45.089 52.4977 44.9649L52.8265 41.9892C52.8336 41.9257 52.8652 41.8674 52.9146 41.8268L55.203 39.9431C55.2375 39.9149 55.2789 39.8967 55.323 39.8902C55.367 39.8838 55.412 39.8894 55.4531 39.9066C55.4941 39.9237 55.5298 39.9517 55.5562 39.9876C55.5825 40.0234 55.5987 40.0658 55.6028 40.1101L56.0756 44.9156C56.0848 45.0629 56.1448 45.2025 56.2453 45.3105C56.3458 45.4186 56.4806 45.4884 56.6269 45.5082C57.4821 45.6182 58.326 45.8029 59.149 46.0603C59.9363 46.3069 60.7436 46.4846 61.5618 46.5915C61.6181 46.5969 61.6708 46.6216 61.711 46.6614C61.7512 46.7013 61.7764 46.7537 61.7824 46.81C61.7883 46.8662 61.7746 46.9229 61.7436 46.9702C61.7126 47.0175 61.6662 47.0527 61.6123 47.0697L54.3639 49.3328C54.3397 49.3396 54.3146 49.3427 54.2896 49.3419ZM48.8702 47.0434L54.2916 48.8378L60.4735 46.9078C59.9878 46.8014 59.497 46.6641 59.015 46.5294C58.2201 46.2807 57.4052 46.1014 56.5793 45.9935C56.3195 45.9635 56.0782 45.844 55.8968 45.6556C55.7155 45.4672 55.6054 45.2215 55.5853 44.9607L55.1576 40.613L53.301 42.1411L52.983 45.0175C52.9617 45.2354 52.8781 45.4425 52.7423 45.6142C52.6064 45.7858 52.424 45.9148 52.2169 45.9856C51.9143 46.0837 51.6164 46.1884 51.3013 46.2998C50.5067 46.5961 49.6946 46.8444 48.8702 47.0434Z" fill="#FE7062" fill-opacity="0.4"/>
<path d="M57.0874 39.9824C57.0874 42.3263 55.8384 45.0667 54.2915 45.0575C52.735 45.0483 51.4668 42.2654 51.4668 39.8985C51.4668 37.5316 52.735 36.4955 54.2915 36.528C55.8384 36.5606 57.0874 37.6388 57.0874 39.9824Z" fill="white"/>
<path d="M54.2987 45.3029H54.2891C52.5611 45.2928 51.2207 42.3893 51.2207 39.8989C51.2207 38.6687 51.5604 37.6872 52.203 37.0567C52.4812 36.7926 52.8102 36.588 53.17 36.455C53.5297 36.3221 53.9127 36.2637 54.2958 36.2835C56.5354 36.3302 57.3333 38.2251 57.3333 39.9828C57.3333 41.7663 56.6552 43.6854 55.6845 44.6506C55.5089 44.8465 55.2958 45.0052 55.0577 45.1172C54.8197 45.2293 54.5615 45.2924 54.2987 45.3029ZM54.2198 36.7729C53.9128 36.763 53.6069 36.8138 53.3196 36.9226C53.0323 37.0314 52.7694 37.1959 52.546 37.4068C51.9998 37.9418 51.7115 38.8035 51.7115 39.8985C51.7115 42.1035 52.9024 44.8038 54.292 44.8122C54.4918 44.8021 54.6875 44.7518 54.8674 44.6642C55.0473 44.5765 55.2076 44.4534 55.3386 44.3022C56.2099 43.4359 56.8408 41.6194 56.8408 39.9823C56.8408 38.0064 55.8853 36.8072 54.2841 36.7734L54.2198 36.7729Z" fill="#FE7062" fill-opacity="0.4"/>
</g>
</g>
<path d="M52.7043 49.0035C52.7043 49.0035 52.7339 47.4862 53.4345 47.2508C54.1352 47.0155 56.5196 45.171 56.3769 45.89C56.2341 46.609 55.1922 47.1628 55.1922 47.1628C55.1922 47.1628 56.0685 48.2557 54.9522 48.8958C53.836 49.5359 51.7119 51.6775 52.7043 49.0035Z" fill="url(#paint10_linear_1076_1811)"/>
<path d="M52.4302 48.5791L54.0247 50.5095C53.5756 52.4879 52.8469 54.3923 51.8606 56.1651C50.5008 58.5832 48.6917 60.7191 46.5305 62.4584C42.3033 65.8309 34.3287 69.4072 31.5817 66.5896C29.1309 64.077 31.9656 57.6257 32.4906 56.466C33.8539 56.9363 32.0733 55.454 38.8364 57.4145C39.7064 57.6649 42.0962 57.2743 44.6455 56.1835C49.3634 54.1667 51.6678 50.096 52.4302 48.5791Z" fill="url(#paint11_linear_1076_1811)"/>
<path d="M33.6282 122.037C33.5327 122.591 33.4738 123.15 33.4521 123.711C33.4776 124.15 38.3529 124.375 38.4021 124.045C38.4514 123.715 37.5963 123.192 36.9946 123.008C36.3928 122.823 34.6314 122.33 34.6314 122.33L33.6282 122.037Z" fill="url(#paint12_linear_1076_1811)"/>
<path d="M34.8112 120.807L34.6556 122.342C34.4995 122.445 34.3199 122.506 34.1336 122.521C33.9474 122.535 33.7605 122.503 33.5903 122.426L33.3398 120.757L34.8112 120.807Z" fill="url(#paint13_linear_1076_1811)"/>
<path d="M24.929 124.038C24.8335 124.592 24.7746 125.151 24.7529 125.712C24.7784 126.151 29.6536 126.376 29.7029 126.046C29.7521 125.716 28.8971 125.193 28.2954 125.009C27.6936 124.824 25.9322 124.331 25.9322 124.331L24.929 124.038Z" fill="url(#paint14_linear_1076_1811)"/>
<path d="M26.114 122.808L25.9583 124.342C25.8022 124.445 25.6226 124.506 25.4363 124.521C25.2501 124.535 25.0632 124.503 24.8929 124.426L24.6426 122.757L26.114 122.808Z" fill="url(#paint15_linear_1076_1811)"/>
<path d="M33.926 80.7367L35.6165 84.1639C36.0697 90.6838 36.295 97.7728 36.1502 105.355C36.0425 110.995 35.7413 116.339 35.3081 121.355L33.0159 121.249C31.4777 118.269 30.6142 114.986 30.4867 111.634C30.3615 107.357 31.6585 106.789 31.5763 102.693C31.4694 97.3852 29.2436 95.9688 28.0576 89.5838C27.4838 86.4508 27.3504 83.253 27.6616 80.0832L33.926 80.7367Z" fill="url(#paint16_linear_1076_1811)"/>
<path style="mix-blend-mode:multiply" opacity="0.3" d="M27.6635 80.0831L31.0465 80.4362C33.0762 83.9686 33.6429 87.6454 33.287 89.2712C32.7829 91.5721 31.4509 92.309 31.5235 94.6192C31.5961 96.9051 32.9423 97.4985 33.7969 100.192C34.3882 102.057 34.2321 103.772 33.8958 107.126C33.2181 113.882 31.5869 115.948 32.9536 118.163C33.5417 119.061 34.404 119.746 35.4123 120.114C35.3789 120.529 35.3455 120.944 35.31 121.354L33.0178 121.249C31.4796 118.268 30.6162 114.985 30.4886 111.634C30.3634 107.356 31.66 106.788 31.5777 102.693C31.4713 97.3847 29.2455 95.9684 28.0595 89.5833C27.4857 86.4505 27.3524 83.2528 27.6635 80.0831Z" fill="url(#paint17_linear_1076_1811)"/>
<path d="M30.8948 82.7936C29.837 88.5619 28.9027 94.735 28.1736 101.282C27.2936 109.187 26.8237 116.638 26.6388 123.559L24.123 123.63C20.8184 117.093 20.6177 112.661 21.093 109.776C21.5309 107.617 21.7971 105.426 21.8892 103.224C21.9409 101.195 21.8586 99.1645 21.6425 97.1461C21.2457 92.59 20.7641 91.596 20.6949 88.1103C20.6298 84.84 20.6164 83.1863 21.5499 82.219C24.0099 79.6739 30.4087 82.5682 30.8948 82.7936Z" fill="url(#paint18_linear_1076_1811)"/>
<path d="M36.259 85.3336C37.0623 84.0003 36.0533 82.7147 35.8237 80.1888C35.5633 77.3261 36.6663 76.8504 37.7567 72.1053C38.4819 68.9501 39.178 65.921 38.3471 62.3757C37.949 60.6764 37.2734 57.7942 34.8882 56.4021C33.6571 55.6835 31.9767 55.7552 28.6655 55.9288C24.571 56.1429 22.5237 56.2502 20.9968 57.0556C20.7731 57.1732 16.1282 59.6999 15.8086 63.8182C15.4831 68.0095 20.0479 68.5733 20.6567 74.1626C20.93 76.6718 20.4426 80.5309 20.1267 83.0343C19.8234 85.4379 19.6147 86.053 20.0888 86.7808C21.2317 88.5334 24.7316 88.0327 31.7313 87.0353C34.478 86.641 35.6597 86.3284 36.259 85.3336Z" fill="url(#paint19_linear_1076_1811)"/>
<path d="M28.4502 51.7988C28.4008 52.7101 28.218 53.6092 27.9077 54.4674C27.4796 55.5002 25.2283 56.1496 24.7722 56.3799C24.3161 56.6103 25.6272 57.2842 26.9421 57.4165C28.257 57.5488 32.0198 57.2496 32.6975 56.7488C33.3752 56.2481 32.1529 56.2873 31.2127 55.9422C30.2725 55.5971 29.7292 53.7589 29.8953 52.9247C30.0614 52.0905 28.4502 51.7988 28.4502 51.7988Z" fill="url(#paint20_linear_1076_1811)"/>
<path style="mix-blend-mode:multiply" opacity="0.2" d="M25.6094 73.2621C25.3135 74.3517 24.249 75.1654 23.5079 77.8152C23.3481 78.3873 22.2085 82.4618 23.6865 83.4646C24.5403 84.0438 25.3069 82.9463 27.3787 82.8032C30.9675 82.5528 32.6784 85.5723 35.0248 84.7482C35.6215 84.521 36.137 84.1211 36.5054 83.5997C36.648 84.1882 36.5599 84.8089 36.2592 85.3345C35.6596 86.3293 34.4778 86.6419 31.7324 87.0341C24.7327 88.0356 21.2328 88.5334 20.0898 86.7795C19.6154 86.0518 19.8244 85.4363 20.1278 83.0331C20.4437 80.5293 20.9311 76.6706 20.6578 74.1614C20.049 68.5696 15.4833 68.0083 15.8096 63.817C15.9083 62.7502 16.2691 61.7242 16.86 60.8304C22.6504 63.1723 26.54 69.8378 25.6094 73.2621Z" fill="url(#paint21_linear_1076_1811)"/>
<path d="M18.2949 81.5062L19.4533 82.2461C19.8265 81.8029 20.3317 81.4908 20.8951 81.3556C21.7422 81.1694 22.7149 81.4365 22.7374 81.7069C22.7554 81.9235 22.1632 82.1422 22.0698 82.176C21.3307 82.4489 20.782 82.2223 20.484 82.5194C20.3309 82.7079 20.1485 82.8705 19.9437 83.001C19.8767 83.0415 19.807 83.0772 19.735 83.1078C19.2418 83.2997 18.3955 82.4402 18.3225 82.3659L18.2949 81.5062Z" fill="url(#paint22_linear_1076_1811)"/>
<path d="M21.7172 66.3112C22.5555 64.304 23.1994 61.2482 21.8757 56.6842C13.1543 60.1211 8.64163 68.2512 10.3784 74.7114C11.8102 80.036 17.0197 82.6295 18.1818 83.1749L18.9931 81.3288C17.6464 79.8291 16.1287 77.612 16.3436 75.0815C16.6408 71.5725 20.0204 70.3752 21.7172 66.3112Z" fill="url(#paint23_linear_1076_1811)"/>
<path d="M30.5334 51.2456C31.2169 50.5742 31.312 50.4945 31.3867 50.2637C31.6851 49.3323 30.9627 48.0566 30.0155 47.7428C29.9662 47.7265 29.3307 47.5233 29.0883 47.7988C28.8821 48.0329 29.1855 48.3563 29.0411 48.8074C28.9063 49.2297 28.5403 49.2614 27.8614 49.8155C27.3022 50.2717 26.955 50.5554 26.8749 50.9543C26.708 51.7768 27.7054 52.9686 28.5858 52.9365C28.903 52.9261 28.9894 52.7629 30.5334 51.2456Z" fill="url(#paint24_linear_1076_1811)"/>
<path d="M28.6718 53.0634C28.9037 53.3057 29.1945 53.4837 29.5157 53.5802C29.8369 53.6766 30.1776 53.6882 30.5046 53.6138C31.4953 53.3705 31.2424 51.0967 30.5176 50.7344C30.3545 50.6735 30.1806 50.6463 30.0067 50.6545C29.8327 50.6628 29.6622 50.7063 29.5056 50.7824C29.3103 50.8763 29.2552 50.974 28.9343 51.1217C28.6372 51.2577 28.5433 51.2389 28.4632 51.3345C28.363 51.4543 28.3205 51.7101 28.6335 52.336C28.5513 52.2612 28.4485 52.2127 28.3384 52.1971C28.2283 52.1815 28.1161 52.1994 28.0163 52.2484C27.9659 52.2885 27.9276 52.3418 27.9057 52.4024C27.8127 52.6815 28.1052 52.9678 28.6718 53.0634Z" fill="url(#paint25_linear_1076_1811)"/>
<path d="M30.5757 57.2634C30.4413 57.5694 30.2883 57.8838 30.1167 58.2065C30.0382 58.3542 29.9593 58.4986 29.8805 58.6376C29.5558 58.6818 29.2311 58.7277 28.9065 58.7719C28.7116 58.3292 28.5163 57.8831 28.3223 57.4387C28.5501 57.4304 28.7896 57.4191 29.0354 57.4028C29.1698 57.4061 29.3108 57.4028 29.4569 57.3944C29.7 57.3796 29.942 57.3506 30.1818 57.3076C30.3149 57.2947 30.4463 57.278 30.5757 57.2634Z" fill="url(#paint26_linear_1076_1811)"/>
<path d="M29.871 58.547C29.871 58.547 30.9882 69.4801 34.4275 71.1868C34.344 71.5386 34.4692 74.3846 34.4692 74.3846C34.4692 74.3846 31.2715 73.4666 31.0891 73.5325C30.9068 73.5984 27.1532 67.553 28.905 58.7719L29.871 58.547Z" fill="url(#paint27_linear_1076_1811)"/>
<g filter="url(#filter1_d_1076_1811)">
<path d="M100.612 90.1538L61.2733 92.913C56.6507 93.2373 53.1662 97.2475 53.4904 101.87C53.8146 106.493 57.8249 109.977 62.4475 109.653L101.787 106.894C106.409 106.57 109.894 102.559 109.57 97.9367C109.245 93.3141 105.235 89.8295 100.612 90.1538Z" fill="url(#paint28_linear_1076_1811)"/>
</g>
<path d="M63.0496 97.9795C63.5321 97.9457 63.9342 98.0771 64.2557 98.3737C64.5773 98.6703 64.7561 99.0752 64.7921 99.5883L65.0106 102.703C65.0401 103.125 64.9616 103.493 64.7749 103.806C64.5878 104.114 64.3203 104.326 63.9725 104.443C63.955 104.456 63.9469 104.472 63.9482 104.49L64.008 105.343C64.0122 105.404 63.9838 105.436 63.9228 105.441L63.2173 105.49C63.1562 105.494 63.1235 105.466 63.1192 105.405L63.0595 104.553C63.0582 104.534 63.048 104.52 63.0288 104.509C62.6676 104.436 62.373 104.26 62.1447 103.982C61.9226 103.703 61.7967 103.352 61.7672 102.931L61.5487 99.8157C61.5127 99.3027 61.6332 98.8768 61.9102 98.5382C62.1873 98.1996 62.567 98.0134 63.0496 97.9795ZM63.9061 99.5583C63.8881 99.3018 63.8033 99.099 63.6517 98.9501C63.5057 98.7946 63.3228 98.7246 63.1029 98.74C62.883 98.7554 62.7086 98.8505 62.5797 99.0253C62.4565 99.1935 62.4038 99.4059 62.4218 99.6624L62.6532 102.961C62.6712 103.217 62.7531 103.423 62.8991 103.579C63.0507 103.728 63.2365 103.795 63.4564 103.779C63.6763 103.764 63.8478 103.672 63.9711 103.504C64.1 103.329 64.1554 103.113 64.1374 102.857L63.9061 99.5583ZM67.7536 104.242C67.2527 104.277 66.838 104.14 66.5095 103.832C66.1866 103.517 66.0061 103.088 65.968 102.544L65.6467 97.9631C65.6424 97.902 65.6708 97.8693 65.7318 97.865L66.4282 97.8162C66.4893 97.8119 66.5219 97.8403 66.5262 97.9014L66.854 102.574C66.8741 102.861 66.9606 103.088 67.1135 103.256C67.2726 103.422 67.4681 103.498 67.7002 103.481C67.9384 103.465 68.1216 103.363 68.2496 103.176C68.3838 102.989 68.4408 102.751 68.4207 102.464L68.0929 97.7915C68.0887 97.7304 68.1171 97.6977 68.1781 97.6935L68.8745 97.6446C68.9355 97.6403 68.9682 97.6687 68.9725 97.7298L69.2938 102.311C69.332 102.855 69.2101 103.305 68.9283 103.662C68.646 104.014 68.2544 104.207 67.7536 104.242ZM70.5938 103.969C70.5328 103.973 70.5001 103.945 70.4958 103.884L70.0588 97.6536C70.0545 97.5925 70.0829 97.5599 70.144 97.5556L70.8403 97.5067C70.9014 97.5024 70.9341 97.5308 70.9384 97.5919L71.3754 103.822C71.3796 103.883 71.3512 103.916 71.2902 103.92L70.5938 103.969ZM74.0414 103.801C73.5467 103.836 73.1361 103.714 72.8097 103.436C72.489 103.152 72.3111 102.759 72.2759 102.258L72.0478 99.0057C72.0127 98.5048 72.1343 98.0942 72.4126 97.774C72.697 97.4532 73.0866 97.2755 73.5813 97.2408C74.0822 97.2057 74.4928 97.3273 74.813 97.6056C75.1394 97.8835 75.3202 98.2728 75.3553 98.7737L75.3656 98.9203C75.3699 98.9814 75.3415 99.014 75.2804 99.0183L74.5867 99.1038C74.5256 99.1081 74.4929 99.0797 74.4886 99.0186L74.4719 98.7804C74.4543 98.53 74.3669 98.3336 74.2096 98.1911C74.0584 98.0483 73.8668 97.985 73.6347 98.0013C73.4025 98.0176 73.2216 98.107 73.0918 98.2695C72.9621 98.4321 72.9059 98.6386 72.9235 98.889L73.16 102.261C73.1776 102.511 73.2619 102.708 73.4131 102.851C73.5643 102.993 73.756 103.057 73.9881 103.04C74.2202 103.024 74.4011 102.935 74.5309 102.772C74.6668 102.609 74.726 102.403 74.7084 102.152L74.6917 101.914C74.6874 101.853 74.7158 101.82 74.7769 101.816L75.4758 101.804C75.5369 101.799 75.5695 101.828 75.5738 101.889L75.5835 102.026C75.6186 102.527 75.4942 102.941 75.2102 103.268C74.9319 103.588 74.5423 103.766 74.0414 103.801ZM76.7497 103.537C76.6886 103.542 76.6559 103.513 76.6516 103.452L76.2146 97.2219C76.2103 97.1608 76.2387 97.1281 76.2998 97.1238L76.9961 97.075C77.0572 97.0707 77.0899 97.0991 77.0942 97.1602L77.287 99.9088C77.2883 99.9271 77.2952 99.9389 77.3079 99.9442C77.3201 99.9433 77.3286 99.9335 77.3334 99.9147L78.6956 97.0202C78.7232 96.9753 78.7583 96.9514 78.8011 96.9484L79.5524 96.8957C79.589 96.8931 79.6143 96.9036 79.6282 96.9272C79.6417 96.9446 79.6404 96.9693 79.6242 97.0011L78.3919 99.6472C78.3871 99.6659 78.3884 99.6842 78.3958 99.7021L80.1777 103.186L80.1895 103.222C80.1929 103.271 80.1671 103.298 80.1122 103.301L79.3517 103.355C79.3028 103.358 79.2675 103.336 79.2458 103.289L77.8542 100.514C77.8459 100.483 77.8305 100.481 77.8077 100.508L77.3925 101.282C77.3868 101.289 77.3849 101.305 77.3866 101.329L77.5312 103.39C77.5355 103.451 77.5071 103.484 77.446 103.488L76.7497 103.537ZM85.2706 102.94C85.2156 102.943 85.1801 102.918 85.164 102.864L84.8886 101.825C84.8877 101.813 84.8809 101.804 84.8683 101.799C84.8618 101.793 84.8524 101.79 84.8402 101.791L83.3467 101.896C83.3345 101.897 83.3225 101.901 83.3107 101.908C83.3051 101.914 83.3026 101.924 83.3035 101.936L83.185 103.003C83.1827 103.058 83.1511 103.088 83.09 103.093L82.3937 103.141C82.3631 103.144 82.3381 103.136 82.3185 103.119C82.3049 103.102 82.3002 103.077 82.3041 103.046L83.2323 96.7204C83.2407 96.6646 83.2723 96.6347 83.3273 96.6309L84.1427 96.5737C84.2038 96.5694 84.2393 96.5945 84.2493 96.6491L86.0606 102.783L86.0619 102.801C86.0658 102.856 86.0402 102.886 85.9852 102.89L85.2706 102.94ZM83.4053 101.155C83.407 101.18 83.417 101.191 83.4353 101.19L84.6539 101.105C84.6722 101.103 84.6805 101.09 84.6788 101.066L83.8277 97.8572C83.8207 97.8454 83.8142 97.8397 83.808 97.8401C83.8019 97.8406 83.7963 97.8471 83.791 97.8598L83.4053 101.155ZM88.0227 96.2923C88.493 96.2594 88.8837 96.4038 89.1948 96.7257C89.5115 97.0411 89.6892 97.4737 89.7278 98.0234C89.7655 98.5609 89.6554 99.0044 89.3976 99.354C89.1397 99.7035 88.7817 99.8944 88.3236 99.9265L87.4624 99.9869C87.438 99.9886 87.4266 100.002 87.4283 100.026L87.6147 102.683C87.619 102.744 87.5906 102.777 87.5295 102.781L86.8332 102.83C86.7721 102.834 86.7394 102.806 86.7351 102.745L86.2975 96.5054C86.2932 96.4443 86.3216 96.4117 86.3827 96.4074L88.0227 96.2923ZM88.0909 99.2339C88.3413 99.2163 88.5363 99.1075 88.6757 98.9074C88.8147 98.7013 88.8726 98.4333 88.8495 98.1034C88.8259 97.7675 88.7309 97.5071 88.5645 97.3224C88.3977 97.1315 88.189 97.0449 87.9386 97.0624L87.2606 97.11C87.2362 97.1117 87.2248 97.1248 87.2265 97.1492L87.3737 99.2474C87.3754 99.2718 87.3885 99.2831 87.4129 99.2814L88.0909 99.2339ZM92.1564 96.0024C92.6267 95.9694 93.0174 96.1139 93.3285 96.4358C93.6452 96.7512 93.8229 97.1837 93.8615 97.7335C93.8992 98.271 93.7891 98.7145 93.5313 99.0641C93.2734 99.4136 92.9154 99.6044 92.4573 99.6366L91.5961 99.697C91.5717 99.6987 91.5603 99.7118 91.562 99.7362L91.7484 102.393C91.7527 102.454 91.7243 102.487 91.6632 102.491L90.9669 102.54C90.9058 102.544 90.8731 102.516 90.8688 102.455L90.4312 96.2155C90.4269 96.1544 90.4553 96.1217 90.5164 96.1174L92.1564 96.0024ZM92.2246 98.9439C92.475 98.9264 92.67 98.8176 92.8094 98.6175C92.9484 98.4113 93.0063 98.1433 92.9832 97.8135C92.9596 97.4775 92.8646 97.2172 92.6982 97.0324C92.5314 96.8416 92.3227 96.7549 92.0723 96.7725L91.3943 96.8201C91.3699 96.8218 91.3585 96.8348 91.3602 96.8593L91.5074 98.9574C91.5091 98.9818 91.5222 98.9932 91.5466 98.9915L92.2246 98.9439ZM95.1097 102.25C95.0486 102.254 95.016 102.225 95.0117 102.164L94.5747 95.9341C94.5704 95.873 94.5988 95.8403 94.6599 95.836L95.3562 95.7872C95.4173 95.7829 95.45 95.8113 95.4543 95.8724L95.8418 101.397C95.8435 101.422 95.8566 101.433 95.881 101.431L97.9333 101.287C97.9944 101.283 98.0271 101.311 98.0314 101.372L98.0718 101.95C98.0761 102.011 98.0477 102.043 97.9866 102.048L95.1097 102.25ZM99.5887 101.926C99.5277 101.93 99.495 101.902 99.4907 101.841L99.3069 99.2206L99.2945 99.1754L97.7723 95.719L97.7605 95.683C97.7575 95.6402 97.7835 95.6169 97.8385 95.6131L98.5715 95.5617C98.6264 95.5578 98.6648 95.5797 98.6866 95.6272L99.6427 98.1014C99.6497 98.1132 99.6593 98.1186 99.6715 98.1178C99.6837 98.1169 99.6924 98.1102 99.6977 98.0975L100.299 95.5141C100.314 95.464 100.349 95.437 100.404 95.4331L101.137 95.3817C101.204 95.377 101.231 95.4089 101.217 95.4774L100.192 99.1124L100.186 99.1589L100.37 101.779C100.375 101.84 100.346 101.873 100.285 101.877L99.5887 101.926Z" fill="white"/>
</g>
<defs>
<filter id="filter0_b_1076_1811" x="-71.9336" y="-90.8671" width="268.728" height="302.718" filterUnits="userSpaceOnUse" color-interpolation-filters="sRGB">
<feFlood flood-opacity="0" result="BackgroundImageFix"/>
<feGaussianBlur in="BackgroundImageFix" stdDeviation="50"/>
<feComposite in2="SourceAlpha" operator="in" result="effect1_backgroundBlur_1076_1811"/>
<feBlend mode="normal" in="SourceGraphic" in2="effect1_backgroundBlur_1076_1811" result="shape"/>
</filter>
<filter id="filter1_d_1076_1811" x="50.1217" y="88.0403" width="62.8172" height="26.2372" filterUnits="userSpaceOnUse" color-interpolation-filters="sRGB">
<feFlood flood-opacity="0" result="BackgroundImageFix"/>
<feColorMatrix in="SourceAlpha" type="matrix" values="0 0 0 0 0 0 0 0 0 0 0 0 0 0 0 0 0 0 127 0" result="hardAlpha"/>
<feOffset dy="1.25552"/>
<feGaussianBlur stdDeviation="1.67402"/>
<feColorMatrix type="matrix" values="0 0 0 0 0 0 0 0 0 0 0 0 0 0 0 0 0 0 0.212 0"/>
<feBlend mode="normal" in2="BackgroundImageFix" result="effect1_dropShadow_1076_1811"/>
<feBlend mode="normal" in="SourceGraphic" in2="effect1_dropShadow_1076_1811" result="shape"/>
</filter>
<linearGradient id="paint0_linear_1076_1811" x1="110.598" y1="-56.9935" x2="94.3535" y2="208.615" gradientUnits="userSpaceOnUse">
<stop stop-color="white"/>
<stop offset="1" stop-color="#4042E2"/>
</linearGradient>
<linearGradient id="paint1_linear_1076_1811" x1="57.643" y1="-283.312" x2="-9.38235" y2="378.381" gradientUnits="userSpaceOnUse">
<stop stop-color="#4F52FF"/>
<stop offset="1" stop-color="#4042E2"/>
</linearGradient>
<linearGradient id="paint2_linear_1076_1811" x1="95.5541" y1="-269.517" x2="34.1644" y2="346.643" gradientUnits="userSpaceOnUse">
<stop stop-color="#4F52FF"/>
<stop offset="1" stop-color="#4042E2"/>
</linearGradient>
<linearGradient id="paint3_linear_1076_1811" x1="14.5777" y1="56.2352" x2="248.277" y2="41.0424" gradientUnits="userSpaceOnUse">
<stop stop-color="#FFC444"/>
<stop offset="0.996" stop-color="#F36F56"/>
</linearGradient>
<linearGradient id="paint4_linear_1076_1811" x1="5.25135" y1="25.1068" x2="235.777" y2="23.8507" gradientUnits="userSpaceOnUse">
<stop stop-color="#FFC444"/>
<stop offset="0.996" stop-color="#F36F56"/>
</linearGradient>
<linearGradient id="paint5_linear_1076_1811" x1="9.10453" y1="37.9418" x2="240.661" y2="32.9482" gradientUnits="userSpaceOnUse">
<stop stop-color="#FFC444"/>
<stop offset="0.996" stop-color="#F36F56"/>
</linearGradient>
<linearGradient id="paint6_linear_1076_1811" x1="15.4814" y1="59.1635" x2="249.599" y2="41.0408" gradientUnits="userSpaceOnUse">
<stop stop-color="#FFC444"/>
<stop offset="0.996" stop-color="#F36F56"/>
</linearGradient>
<linearGradient id="paint7_linear_1076_1811" x1="14.4124" y1="55.5737" x2="139.127" y2="-98.7334" gradientUnits="userSpaceOnUse">
<stop stop-color="#FFC444"/>
<stop offset="0.996" stop-color="#F36F56"/>
</linearGradient>
<linearGradient id="paint8_linear_1076_1811" x1="19.6669" y1="73.1798" x2="211.565" y2="-53.7963" gradientUnits="userSpaceOnUse">
<stop stop-color="#FFC444"/>
<stop offset="0.996" stop-color="#F36F56"/>
</linearGradient>
<linearGradient id="paint9_linear_1076_1811" x1="47.5723" y1="19.4474" x2="81.4429" y2="19.4474" gradientUnits="userSpaceOnUse">
<stop stop-color="#FE7062"/>
<stop offset="0.996" stop-color="#FE7062"/>
</linearGradient>
<linearGradient id="paint10_linear_1076_1811" x1="53.8602" y1="45.3438" x2="55.6675" y2="52.6097" gradientUnits="userSpaceOnUse">
<stop stop-color="#FF928E"/>
<stop offset="1" stop-color="#FEB3B1"/>
</linearGradient>
<linearGradient id="paint11_linear_1076_1811" x1="27.1773" y1="24.813" x2="39.1187" y2="57.7664" gradientUnits="userSpaceOnUse">
<stop stop-color="#FF928E"/>
<stop offset="1" stop-color="#FE7062"/>
</linearGradient>
<linearGradient id="paint12_linear_1076_1811" x1="-81.0386" y1="43.3588" x2="-82.1051" y2="60.3682" gradientUnits="userSpaceOnUse">
<stop stop-color="#09005D"/>
<stop offset="1" stop-color="#1A0F91"/>
</linearGradient>
<linearGradient id="paint13_linear_1076_1811" x1="33.8681" y1="120.61" x2="34.5827" y2="123.398" gradientUnits="userSpaceOnUse">
<stop stop-color="#FF928E"/>
<stop offset="1" stop-color="#FEB3B1"/>
</linearGradient>
<linearGradient id="paint14_linear_1076_1811" x1="-89.7372" y1="45.3596" x2="-90.8037" y2="62.369" gradientUnits="userSpaceOnUse">
<stop stop-color="#09005D"/>
<stop offset="1" stop-color="#1A0F91"/>
</linearGradient>
<linearGradient id="paint15_linear_1076_1811" x1="25.1708" y1="122.61" x2="25.8854" y2="125.398" gradientUnits="userSpaceOnUse">
<stop stop-color="#FF928E"/>
<stop offset="1" stop-color="#FEB3B1"/>
</linearGradient>
<linearGradient id="paint16_linear_1076_1811" x1="24.5676" y1="122.345" x2="46.0836" y2="119.105" gradientUnits="userSpaceOnUse">
<stop stop-color="#09005D"/>
<stop offset="1" stop-color="#1A0F91"/>
</linearGradient>
<linearGradient id="paint17_linear_1076_1811" x1="37.509" y1="93.0422" x2="45.6586" y2="93.0422" gradientUnits="userSpaceOnUse">
<stop stop-color="#444B8C"/>
<stop offset="0.996" stop-color="#26264F"/>
</linearGradient>
<linearGradient id="paint18_linear_1076_1811" x1="17.2228" y1="124.649" x2="42.3538" y2="120.323" gradientUnits="userSpaceOnUse">
<stop stop-color="#09005D"/>
<stop offset="1" stop-color="#1A0F91"/>
</linearGradient>
<linearGradient id="paint19_linear_1076_1811" x1="12.4438" y1="15.6843" x2="40.7357" y2="60.9481" gradientUnits="userSpaceOnUse">
<stop stop-color="#FF928E"/>
<stop offset="1" stop-color="#FE7062"/>
</linearGradient>
<linearGradient id="paint20_linear_1076_1811" x1="27.6285" y1="51.33" x2="28.9923" y2="60.6267" gradientUnits="userSpaceOnUse">
<stop stop-color="#FF928E"/>
<stop offset="1" stop-color="#FEB3B1"/>
</linearGradient>
<linearGradient id="paint21_linear_1076_1811" x1="66.9718" y1="95.6689" x2="31.3233" y2="65.6106" gradientUnits="userSpaceOnUse">
<stop stop-color="#FF9085"/>
<stop offset="1" stop-color="#FB6FBB"/>
</linearGradient>
<linearGradient id="paint22_linear_1076_1811" x1="19.8899" y1="81.1407" x2="20.1617" y2="84.2135" gradientUnits="userSpaceOnUse">
<stop stop-color="#FF928E"/>
<stop offset="1" stop-color="#FEB3B1"/>
</linearGradient>
<linearGradient id="paint23_linear_1076_1811" x1="8.16777" y1="23.5973" x2="34.0625" y2="51.2544" gradientUnits="userSpaceOnUse">
<stop stop-color="#FF928E"/>
<stop offset="1" stop-color="#FE7062"/>
</linearGradient>
<linearGradient id="paint24_linear_1076_1811" x1="43.7004" y1="49.0286" x2="39.5739" y2="41.0769" gradientUnits="userSpaceOnUse">
<stop stop-color="#444B8C"/>
<stop offset="0.996" stop-color="#3E4177"/>
</linearGradient>
<linearGradient id="paint25_linear_1076_1811" x1="-143.989" y1="9.36511" x2="-142.491" y2="4.64256" gradientUnits="userSpaceOnUse">
<stop stop-color="#FF928E"/>
<stop offset="1" stop-color="#FEB3B1"/>
</linearGradient>
<linearGradient id="paint26_linear_1076_1811" x1="29.1853" y1="53.4861" x2="29.3885" y2="60.1388" gradientUnits="userSpaceOnUse">
<stop stop-color="#444B8C"/>
<stop offset="0.996" stop-color="#26264F"/>
</linearGradient>
<linearGradient id="paint27_linear_1076_1811" x1="98.1153" y1="76.2851" x2="98.1153" y2="57.0583" gradientUnits="userSpaceOnUse">
<stop stop-color="#444B8C"/>
<stop offset="0.996" stop-color="#26264F"/>
</linearGradient>
<linearGradient id="paint28_linear_1076_1811" x1="90.3042" y1="42.6133" x2="95.8282" y2="153.362" gradientUnits="userSpaceOnUse">
<stop stop-color="#4F52FF"/>
<stop offset="1" stop-color="#4042E2"/>
</linearGradient>
<clipPath id="clip0_1076_1811">
<rect x="0.394531" y="0.169922" width="127.692" height="127.692" rx="3.90622" fill="white"/>
</clipPath>
</defs>
</svg>
