<svg width="100" height="138" viewBox="0 0 50 69" fill="none" xmlns="http://www.w3.org/2000/svg">
<g clip-path="url(#clip0_1076_1732)">
<path d="M15.9551 57.2598L33.5652 68.3214C35.3621 69.4502 37.6736 68.1308 37.6736 65.979V48.4453L15.9551 57.2154V57.2577V57.2598Z" fill="#4D36BF"/>
<path d="M49.7414 6.62411V41.7C49.7414 42.8288 49.0608 43.8475 48.0358 44.2626L37.6735 48.4453L15.957 57.2196V31.7927C21.4328 31.7927 26.2343 28.8361 28.913 24.4014C30.3406 22.0378 31.1706 19.2465 31.1706 16.2646C31.1706 14.2293 30.7846 12.2894 30.0895 10.5125L46.0501 4.06151C47.82 3.3478 49.7414 4.67992 49.7414 6.62411Z" fill="#6648FF"/>
<path d="M30.0852 10.5125C27.8463 4.78371 22.3664 0.734375 15.9548 0.734375C7.55328 0.734375 0.741211 7.68728 0.741211 16.2625C0.741211 24.8377 7.55328 31.7906 15.9548 31.7906V16.2201L30.0873 10.5125H30.0852Z" fill="#F9B019"/>
<path d="M31.1686 16.2646C31.1686 19.2465 30.3407 22.0357 28.9111 24.4014C26.2323 28.8362 21.4309 31.7927 15.9551 31.7927V16.218L30.0876 10.5125C30.7827 12.2894 31.1686 14.2293 31.1686 16.2646Z" fill="#59EDF7"/>
</g>
<defs>
<clipPath id="clip0_1076_1732">
<rect width="49" height="68" fill="white" transform="translate(0.741211 0.734375)"/>
</clipPath>
</defs>
</svg>
