<svg width="10" height="17" viewBox="0 0 10 17" fill="none" xmlns="http://www.w3.org/2000/svg">
<path fill-rule="evenodd" clip-rule="evenodd" d="M7.91965 2.71172C8.45857 2.69674 8.9975 2.71172 9.52295 2.71172H9.74121V0.133204C9.45558 0.105747 9.15918 0.0708014 8.86008 0.0558246C8.32115 0.0333594 7.76336 0.00839192 7.21366 0.0183765C6.38392 0.0144103 5.57296 0.24711 4.89091 0.684856C4.51537 0.938606 4.1986 1.25954 3.95931 1.62869C3.72002 1.99784 3.56308 2.40771 3.49779 2.83402C3.43451 3.19889 3.40208 3.56777 3.40079 3.93731C3.38462 4.51642 3.40079 5.09302 3.40079 5.68461V5.90177H0.741211V8.77732H3.38462V16.0161H6.61816V8.80228H9.25349C9.38822 7.84376 9.52295 6.89774 9.65768 5.91176H6.59121C6.59121 5.91176 6.59121 4.48647 6.61816 3.86743C6.64241 2.99628 7.18672 2.73668 7.91965 2.71172Z" fill="#6648FF"/>
</svg>
