<svg width="36" height="26" viewBox="0 0 18 13" fill="none" xmlns="http://www.w3.org/2000/svg">
<path fill-rule="evenodd" clip-rule="evenodd" d="M2.49042 11.6736C2.18736 11.5817 1.91065 11.4177 1.68366 11.1954C1.45666 10.9731 1.28603 10.699 1.18614 10.3963C0.620333 8.82981 0.452987 2.27721 1.53944 0.986508C1.89486 0.553664 2.4058 0.280239 2.96059 0.226002C5.88259 -0.0926571 14.9541 -0.0417721 15.998 0.333121C16.2912 0.428927 16.559 0.590509 16.7812 0.805726C17.0034 1.02094 17.1743 1.28418 17.2811 1.57561C17.8973 3.1823 17.9186 9.07348 17.1987 10.6454C17.0059 11.0526 16.6819 11.382 16.2796 11.5799C15.1852 12.1476 3.93017 12.1423 2.49042 11.6736ZM7.14702 8.6022L12.4279 5.84137L7.14702 3.06448V8.6022Z" fill="#6648FF"/>
</svg>
