<svg width="18" height="15" viewBox="0 0 18 15" fill="none" xmlns="http://www.w3.org/2000/svg">
<path fill-rule="evenodd" clip-rule="evenodd" d="M5.89974 10.971C5.17254 10.9532 4.46883 10.7077 3.88593 10.2685C3.30303 9.82932 2.86976 9.2182 2.64607 8.51964C3.14265 8.61508 3.65392 8.5995 4.14388 8.474C4.14388 8.474 4.17049 8.474 4.19443 8.45252C3.72655 8.35546 3.28343 8.16237 2.89259 7.88524C2.50175 7.60811 2.17153 7.25286 1.92243 6.84154C1.5749 6.27841 1.39742 5.62532 1.41164 4.96206C1.8896 5.22673 2.42301 5.37305 2.96797 5.38897C2.23692 4.88132 1.72211 4.11444 1.52603 3.241C1.32505 2.37093 1.45913 1.45628 1.90114 0.682217C2.78216 1.77027 3.87842 2.66084 5.11986 3.297C6.36129 3.93315 7.72059 4.3009 9.11085 4.37674C9.08957 4.23712 9.06828 4.10824 9.05498 3.99279C8.94745 3.18627 9.12858 2.36748 9.56579 1.68371C9.81913 1.25516 10.1633 0.888498 10.5735 0.60998C10.9838 0.331462 11.4501 0.14799 11.9389 0.0727239C12.4902 -0.029417 13.058 0.00705796 13.592 0.178916C14.1261 0.350775 14.61 0.652739 15.001 1.05812C15.0238 1.08396 15.0534 1.10272 15.0864 1.11223C15.1194 1.12174 15.1543 1.1216 15.1872 1.11182C15.9026 0.958588 16.5895 0.692172 17.2224 0.32244L17.2677 0.298268H17.2916C17.0293 1.09483 16.4995 1.77388 15.7938 2.21803C16.4662 2.14008 17.1229 1.959 17.7412 1.68103V1.69714C17.6082 1.87435 17.4752 2.05424 17.3395 2.23414C16.9692 2.69383 16.5418 3.10352 16.0678 3.45311C16.0491 3.46422 16.0339 3.48047 16.024 3.49996C16.0142 3.51945 16.01 3.54138 16.0119 3.56318C16.031 4.08681 16.0088 4.61115 15.9454 5.13121C15.8117 6.22083 15.5073 7.2821 15.0436 8.27532C14.5708 9.30242 13.9325 10.2433 13.1547 11.0596C11.8617 12.4295 10.1904 13.3753 8.35795 13.7741C7.71787 13.916 7.0657 13.9951 6.41054 14.0104C4.4401 14.0777 2.49467 13.5494 0.823683 12.4934L0.741211 12.4397C1.93042 12.579 3.1352 12.4109 4.24231 11.951C4.83744 11.7041 5.39533 11.3742 5.89974 10.971Z" fill="#6648FF"/>
</svg>
