<svg width="18" height="17" viewBox="0 0 18 17" fill="none" xmlns="http://www.w3.org/2000/svg">
<path d="M17.6041 4.02089C17.5132 2.98567 17.024 2.0172 16.2281 1.29719C15.3795 0.553074 14.2694 0.128792 13.1096 0.105261C11.1121 0.00530937 6.36791 -0.0621466 4.70242 0.19523C2.80051 0.487589 1.55205 1.53209 1.0261 3.30124C0.61969 4.66308 0.702034 10.9376 0.938445 12.2819C1.25986 14.1235 2.41534 15.303 4.35178 15.7802C5.67993 16.1051 12.2835 16.0651 13.763 15.8377C15.7181 15.5403 16.9772 14.4584 17.4819 12.6392C17.875 11.2274 17.7395 5.29528 17.6041 4.02089ZM16.0368 12.017C15.811 13.4164 14.8256 14.281 13.3327 14.4359C11.9621 14.5758 5.83666 14.6558 4.56695 14.3184C4.00976 14.1949 3.50667 13.9126 3.12636 13.5101C2.74604 13.1076 2.50701 12.6045 2.44191 12.0695C2.248 10.9675 2.20019 5.46769 2.44191 3.99589C2.66769 2.60906 3.65318 1.74697 5.13805 1.58955C6.62292 1.43212 12.063 1.41213 13.5054 1.61953C14.9876 1.83443 15.896 2.76399 16.0661 4.17081C16.2254 5.47269 16.2573 10.6052 16.0368 12.0145V12.017ZM9.24203 3.90594C8.37926 3.90545 7.53572 4.14566 6.81811 4.59621C6.10049 5.04675 5.54103 5.68739 5.2105 6.43707C4.87997 7.18676 4.79322 8.01182 4.96122 8.8079C5.12921 9.60397 5.54441 10.3353 6.15429 10.9094C6.76417 11.4834 7.54133 11.8745 8.38748 12.033C9.23363 12.1915 10.1107 12.1104 10.9079 11.7999C11.705 11.4894 12.3864 10.9635 12.8658 10.2888C13.3451 9.61396 13.601 8.82057 13.601 8.00896C13.6021 7.46996 13.4901 6.93606 13.2714 6.43784C13.0528 5.93961 12.7319 5.48686 12.327 5.1055C11.922 4.72413 11.4411 4.42164 10.9118 4.21538C10.3824 4.00911 9.815 3.90311 9.24203 3.90344V3.90594ZM9.21281 10.6527C8.65558 10.6478 8.11239 10.4877 7.65176 10.1927C7.19114 9.89763 6.83371 9.48088 6.62459 8.99499C6.41546 8.50909 6.364 7.97581 6.47669 7.46243C6.58938 6.94905 6.86119 6.47856 7.2578 6.11033C7.65442 5.7421 8.15809 5.49262 8.70527 5.39337C9.25244 5.29412 9.81861 5.34953 10.3323 5.55263C10.8461 5.75572 11.2843 6.09741 11.5919 6.53456C11.8994 6.97171 12.0624 7.48476 12.0604 8.00896C12.06 8.35924 11.9859 8.70599 11.8423 9.02916C11.6987 9.35234 11.4884 9.64555 11.2236 9.89183C10.9589 10.1381 10.6448 10.3326 10.2997 10.4641C9.95456 10.5955 9.58514 10.6613 9.21281 10.6577V10.6527ZM14.791 3.74351C14.79 3.9335 14.729 4.11892 14.6158 4.27626C14.5026 4.43361 14.3423 4.5558 14.1552 4.62735C13.9681 4.6989 13.7626 4.7166 13.5648 4.6782C13.367 4.63979 13.1858 4.54702 13.0441 4.41163C12.9025 4.27624 12.8067 4.10433 12.769 3.91768C12.7312 3.73104 12.7533 3.53806 12.8323 3.3632C12.9112 3.18835 13.0436 3.03948 13.2126 2.93547C13.3817 2.83147 13.5797 2.777 13.7816 2.77898C13.9158 2.77928 14.0485 2.80474 14.1721 2.85385C14.2956 2.90296 14.4075 2.97475 14.5013 3.06502C14.595 3.15529 14.6687 3.26223 14.718 3.37958C14.7673 3.49694 14.7912 3.62236 14.7884 3.74852L14.791 3.74351Z" fill="#6648FF"/>
</svg>
