<svg width="18" height="17" viewBox="0 0 18 17" fill="none" xmlns="http://www.w3.org/2000/svg">
<path d="M1.02277 5.32191H4.55027V16.0036H1.02277V5.32191ZM2.78653 0.0161198C3.19052 0.0166154 3.58529 0.130033 3.92091 0.342023C4.25653 0.554012 4.51793 0.855053 4.67205 1.20708C4.82617 1.55911 4.86608 1.94632 4.78675 2.31974C4.70742 2.69315 4.5124 3.036 4.22636 3.30493C3.94032 3.57387 3.5761 3.75682 3.17976 3.83063C2.78342 3.90444 2.37276 3.86581 1.99972 3.71961C1.62668 3.57342 1.308 3.32623 1.08398 3.00931C0.859971 2.69238 0.740688 2.31995 0.741213 1.93912C0.741212 1.68617 0.794155 1.43571 0.897006 1.20207C0.999858 0.968433 1.1506 0.756223 1.34059 0.577589C1.53059 0.398956 1.7561 0.257406 2.00422 0.161061C2.25234 0.0647155 2.51818 0.0154611 2.78653 0.0161198Z" fill="#6648FF"/>
<path d="M6.76028 5.3219H10.139V6.79671H10.1842C10.6543 5.9554 11.8045 5.07151 13.5204 5.07151C17.0851 5.07151 17.7412 7.28247 17.7412 10.1595V16.0161H14.2217V10.803C14.2217 9.56353 14.1978 7.97105 12.3915 7.97105C10.5853 7.97105 10.2798 9.32066 10.2798 10.7128V15.9961H6.76028V5.3219Z" fill="#6648FF"/>
</svg>
