<svg width="14" height="17" viewBox="0 0 14 17" fill="none" xmlns="http://www.w3.org/2000/svg">
<path fill-rule="evenodd" clip-rule="evenodd" d="M6.16114 10.4534C6.1454 10.5009 6.1323 10.5384 6.12181 10.5784C5.50547 12.8808 5.43728 13.3908 4.81045 14.4608C4.50767 14.9671 4.16669 15.4517 3.79021 15.9108C3.74824 15.9633 3.7089 16.0308 3.62235 16.0133C3.5358 15.9958 3.52269 15.9158 3.5122 15.8458C3.40604 15.1472 3.3613 14.4415 3.37844 13.7358C3.41253 12.8183 3.53056 12.5008 4.77635 7.51339C4.78951 7.44304 4.77943 7.37053 4.74751 7.30589C4.43609 6.56189 4.40182 5.73858 4.65045 4.97341C5.21433 3.27343 7.23646 3.14344 7.59052 4.54592C7.80821 5.41591 7.23383 6.5459 6.80371 8.23088C6.43653 9.61586 8.14654 10.6008 9.61002 9.58836C10.9581 8.65587 11.4826 6.4209 11.383 4.83841C11.1863 1.67595 7.55118 0.993459 5.24581 2.01095C2.60474 3.17593 2.00151 6.3009 3.19484 7.72838C3.34696 7.90838 3.45712 8.01838 3.41253 8.20338C3.33648 8.48838 3.26829 8.77837 3.18699 9.06087C3.17668 9.10798 3.15481 9.1521 3.12319 9.18962C3.09157 9.22714 3.0511 9.257 3.00506 9.27675C2.95901 9.2965 2.90871 9.30558 2.85828 9.30325C2.80785 9.30093 2.75873 9.28726 2.7149 9.26337C2.28181 9.09595 1.90145 8.82467 1.61073 8.47587C0.59836 7.27838 0.299374 4.91341 1.64745 2.90843C3.13191 0.688454 5.89363 -0.209022 8.41406 0.0634753C11.4249 0.390972 13.329 2.35095 13.6857 4.57592C13.8483 5.59091 13.7329 8.09088 12.2406 9.85586C10.5227 11.8858 7.73739 12.0208 6.45488 10.7758C6.35095 10.6735 6.25289 10.5658 6.16114 10.4534Z" fill="#6648FF"/>
</svg>
