<svg width="18" height="15" viewBox="0 0 18 15" fill="none" xmlns="http://www.w3.org/2000/svg">
<path d="M6.8974 0.0161379C7.75178 0.0139142 8.60009 0.162604 9.40486 0.455639C10.1233 0.718242 10.7893 1.11166 11.3704 1.6168C11.9397 2.10285 12.3992 2.70909 12.7171 3.3938C12.8643 3.71318 12.974 4.04921 13.0439 4.39489C13.0598 4.47628 13.0439 4.48714 12.9695 4.48171C11.9764 4.43308 10.9857 4.61875 10.0742 5.02431C9.43503 5.308 8.85384 5.71202 8.36097 6.21529C7.82432 6.75562 7.4336 7.42853 7.22677 8.16864C7.15155 8.4487 7.10526 8.73605 7.08865 9.02595C7.06338 9.50385 7.12184 9.9825 7.2613 10.4394C7.26448 10.4569 7.26891 10.4741 7.27458 10.491C7.28786 10.5316 7.27458 10.5479 7.22943 10.5534C6.9827 10.571 6.73507 10.571 6.48835 10.5534C6.19432 10.535 5.90162 10.4987 5.6118 10.4448C5.37806 10.4014 5.14696 10.3445 4.91853 10.2794C4.83634 10.254 4.74983 10.2467 4.66468 10.2579C4.57953 10.2691 4.49767 10.2986 4.42448 10.3445L3.07247 11.1394C3.03459 11.1697 2.98782 11.1862 2.93966 11.1862C2.8915 11.1862 2.84474 11.1697 2.80685 11.1394C2.7672 11.1086 2.73847 11.0655 2.72505 11.0165C2.71162 10.9675 2.71423 10.9154 2.73248 10.8681C2.83076 10.5018 2.92638 10.1383 3.022 9.78287C3.06014 9.68862 3.06367 9.58347 3.03195 9.48677C3.00023 9.39006 2.93539 9.30831 2.84935 9.25655C2.34443 8.88263 1.90524 8.42396 1.55047 7.90006C1.2502 7.45557 1.02652 6.96193 0.889073 6.44047C0.623565 5.43189 0.717709 4.35975 1.15469 3.41551C1.4648 2.74395 1.91011 2.14675 2.46154 1.66292C3.20328 1.01823 4.07891 0.554361 5.02212 0.306429C5.43472 0.190012 5.85716 0.113701 6.28382 0.0785311C6.50429 0.0432624 6.72209 0.0324157 6.8974 0.0161379ZM3.89058 3.61084C3.8911 3.81086 3.94966 4.00624 4.05885 4.17229C4.16803 4.33835 4.32295 4.46763 4.50403 4.54381C4.68512 4.61998 4.88424 4.63964 5.07626 4.60029C5.26827 4.56094 5.44456 4.46434 5.58285 4.32271C5.72115 4.18108 5.81524 4.00076 5.85326 3.80454C5.89127 3.60832 5.8715 3.405 5.79643 3.22025C5.72137 3.0355 5.59438 2.87762 5.43151 2.76654C5.26863 2.65547 5.07719 2.59619 4.88135 2.59619C4.74991 2.59544 4.61965 2.62156 4.49824 2.673C4.37684 2.72444 4.26673 2.80016 4.17441 2.89572C4.08209 2.99127 4.00942 3.10473 3.96067 3.22941C3.91193 3.35408 3.8881 3.48746 3.89058 3.62168V3.61084ZM9.99984 3.61084C9.99984 3.41112 9.94183 3.21589 9.83314 3.04986C9.72444 2.88384 9.56996 2.75447 9.38925 2.67817C9.20855 2.60186 9.00973 2.58204 8.81799 2.62121C8.62624 2.66037 8.45018 2.75675 8.3121 2.89817C8.17402 3.03958 8.08012 3.21966 8.0423 3.41561C8.00447 3.61156 8.02441 3.81458 8.09961 3.99894C8.1748 4.18331 8.30186 4.34074 8.46471 4.45131C8.62755 4.56188 8.81885 4.6206 9.0144 4.62006C9.27345 4.61721 9.52098 4.51028 9.70342 4.32242C9.88586 4.13455 9.98853 3.88087 9.98922 3.61627L9.99984 3.61084Z" fill="#6648FF"/>
<path d="M8.14051 9.52512C8.13299 8.78271 8.3521 8.05635 8.76738 7.44698C9.09889 6.95673 9.52453 6.54045 10.0184 6.22343C10.4488 5.94454 10.9168 5.73156 11.4076 5.5913C11.7548 5.492 12.1107 5.4275 12.4701 5.39869C13.0383 5.34967 13.6104 5.38807 14.1674 5.51263C14.7248 5.63681 15.2587 5.85307 15.7479 6.15289C16.1209 6.37965 16.4599 6.66017 16.7546 6.98577C17.2239 7.49405 17.5442 8.12663 17.6789 8.8116C17.8087 9.48824 17.7346 10.1892 17.4664 10.8219C17.2783 11.2627 17.0127 11.6645 16.6829 12.0075C16.4901 12.2039 16.2833 12.3853 16.064 12.5501C16.0152 12.5838 15.9782 12.6324 15.9582 12.6889C15.9381 12.7455 15.9361 12.807 15.9524 12.8648C16.0241 13.1605 16.1038 13.4562 16.1835 13.7519C16.198 13.7838 16.2036 13.8191 16.1999 13.854C16.1961 13.8889 16.1831 13.9221 16.1622 13.95C16.1378 13.9838 16.1014 14.0067 16.0608 14.0138C16.0202 14.0209 15.9785 14.0116 15.9444 13.988L15.4584 13.7004L14.8687 13.3558C14.8144 13.3229 14.754 13.302 14.6913 13.2945C14.6286 13.287 14.565 13.2931 14.5048 13.3124C14.1045 13.4287 13.693 13.4997 13.2776 13.5241C12.8525 13.5508 12.4259 13.5299 12.0053 13.4617C11.4736 13.3751 10.9577 13.2068 10.4753 12.9625C9.69392 12.5813 9.04048 11.9725 8.59737 11.2126C8.35489 10.7894 8.20197 10.319 8.14848 9.83169C8.13986 9.72975 8.1372 9.62738 8.14051 9.52512ZM14.5446 7.38187C14.4443 7.3808 14.3447 7.39996 14.2517 7.43827C14.1586 7.47658 14.0739 7.53328 14.0023 7.60512C13.9307 7.67695 13.8737 7.7625 13.8346 7.85688C13.7955 7.95125 13.775 8.05259 13.7743 8.15507C13.7763 8.36051 13.8564 8.55712 13.9976 8.70341C14.1389 8.84969 14.3302 8.93421 14.5313 8.93912C14.6322 8.94056 14.7324 8.92147 14.8259 8.88296C14.9195 8.84444 15.0046 8.78727 15.0763 8.71479C15.148 8.6423 15.2049 8.55596 15.2436 8.46079C15.2823 8.36562 15.302 8.26354 15.3016 8.1605C15.3034 8.05935 15.2855 7.95885 15.249 7.86481C15.2124 7.77077 15.158 7.68507 15.0889 7.61265C15.0197 7.54024 14.9371 7.48256 14.846 7.44294C14.7549 7.40333 14.6569 7.38258 14.5579 7.38187H14.5446ZM10.5736 8.15507C10.572 8.30959 10.6154 8.46112 10.6981 8.5905C10.7808 8.71987 10.8993 8.82126 11.0385 8.88188C11.1776 8.9425 11.3313 8.95959 11.48 8.93103C11.6287 8.90246 11.7657 8.8295 11.8738 8.72138C11.9819 8.61325 12.0562 8.47482 12.0872 8.32358C12.1183 8.17235 12.1047 8.01509 12.0483 7.87171C11.9919 7.72834 11.8951 7.60528 11.7702 7.51809C11.6453 7.43089 11.4978 7.38349 11.3465 7.38187C11.2459 7.38008 11.1459 7.39872 11.0524 7.43673C10.9588 7.47475 10.8736 7.53139 10.8017 7.60333C10.7298 7.67527 10.6726 7.76108 10.6334 7.8558C10.5943 7.95052 10.5739 8.05225 10.5736 8.15507Z" fill="#6648FF"/>
</svg>
