<?xml version="1.0" encoding="UTF-8" standalone="no"?><svg xmlns="http://www.w3.org/2000/svg" xmlns:xlink="http://www.w3.org/1999/xlink" fill="#6548ff" height="72" preserveAspectRatio="xMidYMid meet" version="1" viewBox="0.0 0.0 77.7 72.0" width="77.7" zoomAndPan="magnify"><g id="change1_2"><path d="M40.865 61.688L48.765 70.682 49.045 71 91.695 33.529 83.512 24.217 50.039 53.627 38.365 40.344 29.188 48.405z" fill="inherit" transform="translate(-14 -14)"/></g><g id="change1_1"><path d="m77 77h-54v-54h54v1.541l7.47-6.547c-1.614-2.408-4.354-3.994-7.47-3.994h-54c-4.97 0-9 4.03-9 9v54c0 4.969 4.03 9 9 9h54c4.971 0 9-4.031 9-9v-33.143l-9 7.907v25.236z" fill="inherit" transform="translate(-14 -14)"/></g></svg>